<?xml version="1.0" encoding="UTF-8"?>
<svg id="_レイヤー_1" data-name="レイヤー 1" xmlns="http://www.w3.org/2000/svg" viewBox="0 0 1000 1000">
  <defs>
    <style>
      .cls-1 {
        fill: none;
      }

      .cls-2 {
        fill: #1f1fdd;
      }

      .cls-3 {
        fill: #fff;
      }

      .cls-4 {
        fill: #180d21;
      }

      .cls-5 {
        fill: #e21331;
      }
    </style>
  </defs>
  <g>
    <path class="cls-3" d="M750.26,305.38c-19.18,0-44-12.91-64.77-33.68-30.56-30.55-42.52-68.31-26.67-84.16,4.65-4.65,11.17-7.01,19.38-7.01,19.18,0,44,12.9,64.77,33.68,30.56,30.55,42.52,68.31,26.67,84.16-4.65,4.65-11.17,7.01-19.38,7.01h0Z"/>
    <path d="M678.2,180.91c19.08,0,43.8,12.86,64.51,33.57,14.79,14.79,25.69,31.68,30.69,47.56,4.95,15.72,3.52,28.53-4.02,36.07-4.58,4.58-11.01,6.9-19.13,6.9-19.08,0-43.8-12.86-64.51-33.57-30.41-30.41-42.38-67.93-26.67-83.64,4.58-4.58,11.01-6.9,19.13-6.9M678.2,180.17c-8.01,0-14.82,2.29-19.65,7.11-16.02,16.02-4.08,53.93,26.67,84.68,21.48,21.48,46.46,33.79,65.03,33.79,8.01,0,14.82-2.29,19.65-7.11,16.02-16.02,4.08-53.93-26.67-84.68-21.48-21.48-46.46-33.79-65.03-33.79h0Z"/>
  </g>
  <g>
    <g>
      <g>
        <g>
          <path d="M222.22,746.56c0-5.7,1.09-11.1,3.26-16.2,2.17-5.1,5.19-9.62,9.06-13.56,3.86-3.94,8.35-7.03,13.45-9.28,5.1-2.25,10.58-3.38,16.43-3.38s11.21,1.13,16.32,3.38c5.1,2.25,9.62,5.34,13.56,9.28,3.94,3.94,7.01,8.46,9.23,13.56,2.21,5.1,3.32,10.5,3.32,16.2s-1.11,11.33-3.32,16.43c-2.21,5.1-5.29,9.58-9.23,13.45-3.94,3.86-8.46,6.88-13.56,9.06-5.1,2.17-10.54,3.26-16.32,3.26s-11.33-1.09-16.43-3.26c-5.1-2.17-9.58-5.19-13.45-9.06-3.86-3.86-6.88-8.35-9.06-13.45-2.18-5.1-3.26-10.58-3.26-16.43ZM239.1,746.56c0,3.68.66,7.11,1.97,10.3,1.31,3.19,3.15,6,5.51,8.44,2.36,2.44,5.1,4.33,8.21,5.68,3.11,1.35,6.51,2.02,10.18,2.02s6.81-.67,9.85-2.02,5.68-3.24,7.93-5.68c2.25-2.44,4.01-5.25,5.29-8.44,1.27-3.19,1.91-6.62,1.91-10.3s-.66-7.24-1.97-10.47c-1.31-3.22-3.11-6.06-5.4-8.5-2.29-2.44-4.97-4.33-8.05-5.68-3.08-1.35-6.41-2.03-10.01-2.03s-6.94.67-10.01,2.03c-3.08,1.35-5.78,3.24-8.1,5.68-2.33,2.44-4.13,5.27-5.4,8.5-1.28,3.23-1.91,6.71-1.91,10.47Z"/>
          <path d="M318.1,746.56c0-5.7,1.09-11.1,3.26-16.2,2.17-5.1,5.19-9.62,9.06-13.56,3.86-3.94,8.35-7.03,13.45-9.28,5.1-2.25,10.58-3.38,16.43-3.38s11.21,1.13,16.32,3.38c5.1,2.25,9.62,5.34,13.56,9.28,3.94,3.94,7.01,8.46,9.23,13.56,2.21,5.1,3.32,10.5,3.32,16.2s-1.11,11.33-3.32,16.43c-2.21,5.1-5.29,9.58-9.23,13.45-3.94,3.86-8.46,6.88-13.56,9.06-5.1,2.17-10.54,3.26-16.32,3.26s-11.33-1.09-16.43-3.26c-5.1-2.17-9.58-5.19-13.45-9.06-3.86-3.86-6.88-8.35-9.06-13.45-2.18-5.1-3.26-10.58-3.26-16.43ZM334.98,746.56c0,3.68.66,7.11,1.97,10.3,1.31,3.19,3.15,6,5.51,8.44s5.1,4.33,8.21,5.68c3.11,1.35,6.51,2.02,10.18,2.02s6.81-.67,9.85-2.02,5.68-3.24,7.93-5.68c2.25-2.44,4.01-5.25,5.29-8.44,1.27-3.19,1.91-6.62,1.91-10.3s-.66-7.24-1.97-10.47c-1.31-3.22-3.11-6.06-5.4-8.5-2.29-2.44-4.97-4.33-8.05-5.68-3.08-1.35-6.41-2.03-10.01-2.03s-6.94.67-10.01,2.03c-3.08,1.35-5.78,3.24-8.1,5.68-2.33,2.44-4.13,5.27-5.4,8.5-1.28,3.23-1.91,6.71-1.91,10.47Z"/>
          <path d="M411.16,705.04h55.81v15.75h-20.14v67.07h-16.32v-67.07h-19.35v-15.75Z"/>
          <path d="M473.16,746.56c0-5.7,1.09-11.1,3.26-16.2,2.17-5.1,5.19-9.62,9.06-13.56,3.86-3.94,8.35-7.03,13.45-9.28,5.1-2.25,10.58-3.38,16.43-3.38s11.21,1.13,16.32,3.38c5.1,2.25,9.62,5.34,13.56,9.28s7.01,8.46,9.23,13.56c2.21,5.1,3.32,10.5,3.32,16.2s-1.11,11.33-3.32,16.43c-2.21,5.1-5.29,9.58-9.23,13.45-3.94,3.86-8.46,6.88-13.56,9.06-5.1,2.17-10.54,3.26-16.32,3.26s-11.33-1.09-16.43-3.26c-5.1-2.17-9.58-5.19-13.45-9.06-3.86-3.86-6.88-8.35-9.06-13.45-2.18-5.1-3.26-10.58-3.26-16.43ZM490.04,746.56c0,3.68.66,7.11,1.97,10.3,1.31,3.19,3.15,6,5.51,8.44,2.36,2.44,5.1,4.33,8.21,5.68,3.11,1.35,6.51,2.02,10.18,2.02s6.81-.67,9.85-2.02,5.68-3.24,7.93-5.68c2.25-2.44,4.01-5.25,5.29-8.44,1.27-3.19,1.91-6.62,1.91-10.3s-.66-7.24-1.97-10.47c-1.31-3.22-3.11-6.06-5.4-8.5-2.29-2.44-4.97-4.33-8.05-5.68-3.08-1.35-6.41-2.03-10.01-2.03s-6.94.67-10.01,2.03c-3.08,1.35-5.78,3.24-8.1,5.68-2.33,2.44-4.13,5.27-5.4,8.5-1.28,3.23-1.91,6.71-1.91,10.47Z"/>
          <path d="M596.94,705.04c6.83,0,12.6,1.14,17.33,3.43,4.73,2.29,8.33,5.51,10.8,9.68,2.48,4.16,3.71,9.1,3.71,14.8,0,3.37-.51,6.77-1.52,10.18s-2.63,6.51-4.84,9.28c-2.21,2.78-5.18,5.01-8.89,6.69-3.71,1.69-8.27,2.53-13.67,2.53h-11.7v26.22h-16.32v-82.82h25.09ZM599.76,745.77c2.48,0,4.54-.43,6.19-1.29,1.65-.86,2.94-1.95,3.88-3.26.94-1.31,1.61-2.68,2.03-4.11.41-1.42.62-2.66.62-3.71,0-.83-.13-1.93-.39-3.32-.26-1.39-.81-2.79-1.63-4.22-.83-1.43-2.08-2.63-3.77-3.6-1.69-.98-3.96-1.46-6.81-1.46h-11.7v24.98h11.59Z"/>
          <path d="M658.05,757.25c0,2.63.79,5.14,2.36,7.54,1.58,2.4,3.66,4.35,6.25,5.85,2.59,1.5,5.42,2.25,8.5,2.25,3.38,0,6.38-.75,9-2.25,2.62-1.5,4.71-3.45,6.25-5.85,1.54-2.4,2.31-4.91,2.31-7.54v-52.21h16.09v52.55c0,6.08-1.5,11.46-4.5,16.15-3,4.69-7.05,8.37-12.15,11.03-5.1,2.66-10.77,3.99-16.99,3.99s-11.76-1.33-16.82-3.99c-5.06-2.66-9.1-6.34-12.1-11.03-3-4.69-4.5-10.07-4.5-16.15v-52.55h16.32v52.21Z"/>
          <path d="M772.71,725.07c-3.15-1.72-6.36-3.15-9.62-4.28s-6.32-1.69-9.17-1.69c-3.53,0-6.3.71-8.33,2.14-2.02,1.43-3.04,3.56-3.04,6.42,0,1.95.77,3.69,2.31,5.23,1.54,1.54,3.53,2.91,5.96,4.11,2.44,1.2,4.97,2.29,7.6,3.26,2.4.9,4.78,1.97,7.15,3.21,2.36,1.24,4.48,2.78,6.36,4.61,1.87,1.84,3.38,4.13,4.5,6.86,1.12,2.74,1.69,6.1,1.69,10.07,0,4.2-1.09,8.1-3.26,11.7-2.18,3.6-5.36,6.51-9.56,8.72-4.2,2.21-9.38,3.32-15.53,3.32-3.15,0-6.36-.32-9.62-.96-3.26-.64-6.47-1.61-9.62-2.93-3.15-1.31-6.19-2.98-9.11-5.01l7.2-12.71c1.95,1.43,4.07,2.68,6.36,3.77,2.29,1.09,4.59,1.93,6.92,2.53,2.32.6,4.46.9,6.41.9s3.92-.28,5.91-.84c1.99-.56,3.64-1.52,4.95-2.87,1.31-1.35,1.97-3.22,1.97-5.63,0-1.65-.55-3.15-1.63-4.5-1.09-1.35-2.55-2.59-4.39-3.71-1.84-1.12-3.84-2.1-6.02-2.92-2.55-.98-5.18-2.1-7.88-3.38s-5.23-2.83-7.6-4.67c-2.36-1.84-4.28-4.13-5.74-6.86-1.46-2.74-2.19-6.09-2.19-10.07,0-4.8,1.07-8.96,3.21-12.49,2.14-3.52,5.16-6.32,9.06-8.38,3.9-2.06,8.4-3.21,13.5-3.43,6.68,0,12.1.79,16.26,2.36,4.16,1.58,7.89,3.45,11.2,5.63l-6.19,12.49Z"/>
        </g>
        <g>
          <path d="M320.06,830.53c0,1.6-.48,2.74-1.6,3.88-1.26,1.26-2.2,1.6-3.94,1.6h-3.4c-2.03,0-2.83-.57-3.88-1.6-1.37-1.4-1.6-2.34-1.6-3.88v-9.82c0-1.6.49-2.77,1.6-3.88,1.26-1.26,2.2-1.63,3.94-1.63h3.4c2.03,0,2.83.6,3.85,1.63,1.4,1.37,1.63,2.31,1.63,3.88v9.82ZM307.9,830.87c0,.57.11.97.71,1.68.14.17.34.34.51.51.4.4.71.66,1.65.66,1.14,0,2.57.03,4.17,0,.77,0,1.06-.09,1.66-.66.17-.17.37-.34.51-.51.6-.68.68-1,.68-1.65l-.03-10.56c0-.57-.09-.94-.68-1.65-.14-.2-.34-.34-.51-.51-.4-.4-.71-.69-1.66-.69-1.17,0-2.57-.03-4.17,0-.77.03-1.06.12-1.66.69-.17.14-.37.31-.51.51-.6.69-.68.97-.68,1.65v10.53Z"/>
          <path d="M332.54,820.26c1.91.03,2.68.43,3.88,1.63,1.06,1.06,1.6,1.94,1.6,3.85v4.71c0,2.06-.6,2.8-1.6,3.88-1.4,1.43-2.2,1.6-3.88,1.6h-4.4v5.68c0,.63-.49,1.14-1.11,1.14s-1.14-.51-1.14-1.2v-18.92c0-1.28,1.08-2.37,2.43-2.37h4.22ZM334.56,823.2c-.57-.54-.89-.68-1.66-.68h-4.77v11.16h4.74c.57,0,1.03-.08,1.66-.68.14-.17.37-.37.54-.54.54-.66.68-1.03.68-1.66v-5.42c0-.57-.11-1.06-.68-1.66-.17-.14-.34-.34-.51-.51Z"/>
          <path d="M353.23,820.23c1.34,0,2.43,1.08,2.43,2.43l-.03,4.03c0,1.34-1.08,2.43-2.43,2.43h-7.65v1.68c0,.77.11,1.06.68,1.66.17.17.34.34.51.51.57.54,1,.68,1.66.68h4.97v-1.34c0-.63.51-1.14,1.14-1.14s1.14.51,1.14,1.14l-.03,1.17c0,1.34-1.08,2.43-2.43,2.43h-4.42c-1.94,0-2.54-.26-3.88-1.6-1.08-1.08-1.6-1.57-1.6-3.88v-4.71c0-1.94.31-2.6,1.6-3.88,1.11-1.11,1.83-1.6,3.88-1.6h4.45ZM345.55,826.85h7.82v-4.37h-4.97c-.66,0-1,.11-1.66.68-.17.17-.34.37-.51.51-.54.54-.68.86-.68,1.66v1.51Z"/>
          <path d="M364.5,822.51v12.67c0,.63-.51,1.14-1.14,1.14s-1.11-.51-1.11-1.14v-12.5c0-1.45,1.11-2.43,2.43-2.43h3.97c2.17,0,2.68.4,3.88,1.6,1.08,1.08,1.6,1.85,1.6,3.88v9.45c0,.63-.49,1.11-1.11,1.11s-1.14-.49-1.14-1.11v-9.82c0-.63-.06-1.03-.68-1.66-.17-.17-.34-.34-.51-.51-.43-.43-.71-.68-1.66-.68h-4.51Z"/>
          <path d="M409.63,829.1c0,.6-.51,1.11-1.14,1.11h-2c-.06,1.46-.54,3.14-1.6,4.2-1.26,1.26-2.2,1.6-3.94,1.6h-3.37c-2.03,0-2.85-.57-3.88-1.6-1.4-1.4-1.63-2.34-1.63-3.88v-9.82c0-1.6.48-2.77,1.6-3.88,1.26-1.26,2.2-1.63,3.94-1.63h3.4c2.03,0,2.85.6,3.88,1.63,1.37,1.37,1.6,2.31,1.6,3.88v7.25h2c.63,0,1.14.51,1.14,1.14ZM404.24,830.22h-4.8c-.63,0-1.14-.51-1.14-1.11s.51-1.14,1.14-1.14h4.8v-7.62c0-.57-.11-.94-.71-1.65-.14-.2-.34-.34-.51-.51-.4-.4-.71-.69-1.65-.69-1.14,0-2.57-.03-4.17,0-.77.03-1.06.12-1.66.69-.17.14-.37.31-.51.51-.57.69-.68.97-.68,1.65v10.53c0,.57.11.97.71,1.68.14.17.34.34.51.51.4.4.71.66,1.66.66,1.17,0,2.57.03,4.17,0,.77,0,1.06-.09,1.66-.66.17-.17.37-.34.51-.51.6-.68.68-1,.68-1.65v-.69Z"/>
          <path d="M417.43,820.85v9.96c0,.91.2,1.17.68,1.65.17.17.34.34.51.51.6.57,1,.68,1.66.68.57,0,1.17.03,1.74,0,.8-.03,1.23-.26,1.66-.68.17-.17.34-.34.51-.51.48-.51.68-.8.68-1.65v-9.96c0-.63.51-1.11,1.14-1.11s1.11.49,1.11,1.11v9.59c0,1.83-.4,2.68-1.6,3.88-1.28,1.28-1.94,1.6-3.8,1.6h-1.09c-1.57,0-2.51-.23-3.88-1.6-1.31-1.31-1.6-1.8-1.6-3.88v-9.59c0-.63.51-1.11,1.14-1.11s1.11.49,1.11,1.11Z"/>
          <path d="M444,825.02v-2.51h-8.39c-.6,0-1.11-.51-1.11-1.14s.51-1.14,1.11-1.14h8.22c1.34,0,2.43,1.11,2.43,2.43v10.82c0,1.34-1.08,2.43-2.43,2.43h-4.48c-1.51,0-2.68-.34-3.97-1.63-1.17-1.17-1.57-1.88-1.57-3.8s.4-2.65,1.57-3.79c1.31-1.31,2.23-1.66,3.97-1.66h4.65ZM437.26,832.96c.49.49,1,.68,1.66.68h5.08v-6.34h-5.08c-.6,0-1.17.2-1.66.69-.17.14-.34.34-.51.51-.48.49-.68.86-.68,1.65v.63c0,.71.11,1.09.68,1.66.17.17.34.34.51.51Z"/>
          <path d="M454.82,822.51v12.67c0,.63-.51,1.14-1.14,1.14s-1.11-.51-1.11-1.14v-12.5c0-1.45,1.11-2.43,2.43-2.43h3.97c2.17,0,2.68.4,3.88,1.6,1.08,1.08,1.6,1.85,1.6,3.88v9.45c0,.63-.49,1.11-1.11,1.11s-1.14-.49-1.14-1.11v-9.82c0-.63-.06-1.03-.68-1.66-.17-.17-.34-.34-.51-.51-.43-.43-.71-.68-1.66-.68h-4.51Z"/>
          <path d="M475.97,820.28h2.74c.6,0,1.11.51,1.11,1.11,0,.63-.51,1.14-1.11,1.14h-2.74v11.13h2.51c.63,0,1.11.49,1.11,1.11s-.49,1.14-1.11,1.14h-2.34c-1.34,0-2.43-1.11-2.43-2.45v-10.93h-1.6c-.63,0-1.14-.51-1.14-1.14s.51-1.11,1.14-1.11h1.6v-2.45c0-.63.48-1.14,1.11-1.14s1.14.51,1.14,1.14v2.45Z"/>
          <path d="M488.27,820.85v9.96c0,.91.2,1.17.68,1.65.17.17.34.34.51.51.6.57,1,.68,1.66.68.57,0,1.17.03,1.74,0,.8-.03,1.23-.26,1.66-.68.17-.17.34-.34.51-.51.48-.51.68-.8.68-1.65v-9.96c0-.63.51-1.11,1.14-1.11s1.11.49,1.11,1.11v9.59c0,1.83-.4,2.68-1.6,3.88-1.28,1.28-1.94,1.6-3.8,1.6h-1.09c-1.57,0-2.51-.23-3.88-1.6s-1.6-1.8-1.6-3.88v-9.59c0-.63.51-1.11,1.14-1.11s1.11.49,1.11,1.11Z"/>
          <path d="M515.87,822.51v12.76c0,.63-.49,1.11-1.11,1.11s-1.14-.49-1.14-1.11v-9.53c0-.71-.23-1.2-.69-1.63-.26-.29-.57-.6-.86-.89-.43-.4-.91-.71-1.66-.71h-2.8v12.76c0,.63-.51,1.11-1.14,1.11s-1.11-.51-1.11-1.11v-12.56c0-1.34,1.09-2.48,2.43-2.48h2.71c1.17,0,2.28.51,3.11,1.34,0-.77.63-1.31,1.4-1.31l3.57-.03c2.03,0,2.63.4,3.88,1.63,1.51,1.48,1.6,2.2,1.6,3.88v9.53c0,.63-.51,1.11-1.14,1.11s-1.14-.49-1.14-1.11v-9.9c0-.83-.14-1.06-.68-1.66-.14-.17-.34-.34-.51-.51-.43-.43-.89-.68-1.66-.68h-3.05Z"/>
          <path d="M549.76,817.46v17.95c0,.6-.51,1.11-1.11,1.11-.63,0-1.14-.51-1.14-1.11v-17.95h-5.42c-.63,0-1.14-.51-1.14-1.14s.51-1.11,1.14-1.11h13.13c.63,0,1.14.49,1.14,1.11s-.51,1.14-1.14,1.14h-5.45Z"/>
          <path d="M565.63,820.26c1.74,0,2.63.34,3.88,1.6,1.26,1.26,1.63,2.14,1.63,3.88v4.74c0,2.11-.49,2.74-1.63,3.88-1.26,1.26-2.28,1.6-3.88,1.6h-1.74c-1.54,0-2.57-.29-3.85-1.6-1.17-1.17-1.63-1.88-1.63-3.88v-4.74c0-2.11.34-2.6,1.63-3.88,1.2-1.2,2.23-1.6,3.85-1.6h1.74ZM568.85,825.37c0-.8-.23-1.11-.68-1.66-.14-.17-.34-.34-.51-.51-.57-.57-.8-.66-1.66-.68h-2.45c-.8,0-1.06.14-1.65.68-.2.17-.34.34-.51.51-.54.54-.68.91-.68,1.66v5.48c0,.66.03,1,.68,1.65.17.14.34.34.51.51.48.49,1.11.69,1.65.69h2.45c.89,0,1.06-.09,1.66-.69.17-.17.34-.37.51-.51.54-.54.68-.97.68-1.65v-5.48Z"/>
          <path d="M583.78,820.26c1.74,0,2.63.34,3.88,1.6,1.26,1.26,1.63,2.14,1.63,3.88v4.74c0,2.11-.49,2.74-1.63,3.88-1.26,1.26-2.28,1.6-3.88,1.6h-1.74c-1.54,0-2.57-.29-3.85-1.6-1.17-1.17-1.63-1.88-1.63-3.88v-4.74c0-2.11.34-2.6,1.63-3.88,1.2-1.2,2.23-1.6,3.85-1.6h1.74ZM587.01,825.37c0-.8-.23-1.11-.68-1.66-.14-.17-.34-.34-.51-.51-.57-.57-.8-.66-1.66-.68h-2.45c-.8,0-1.06.14-1.65.68-.2.17-.34.34-.51.51-.54.54-.68.91-.68,1.66v5.48c0,.66.03,1,.68,1.65.17.14.34.34.51.51.48.49,1.11.69,1.65.69h2.45c.89,0,1.06-.09,1.66-.69.17-.17.34-.37.51-.51.54-.54.68-.97.68-1.65v-5.48Z"/>
          <path d="M596.74,815.86c0-.63.51-1.14,1.14-1.14s1.14.51,1.14,1.14v19.38c0,.63-.51,1.11-1.14,1.11s-1.14-.49-1.14-1.11v-19.38Z"/>
          <path d="M616.35,820.26c1.34,0,2.43,1.08,2.43,2.43v2.17c0,.63-.49,1.14-1.11,1.14s-1.14-.51-1.14-1.14v-2.34h-4.68c-.6,0-1.06.08-1.66.68-.17.17-.34.34-.51.51-.46.43-.68,1.03-.68,1.66v5.42c0,.8.23,1.2.68,1.66.17.17.31.34.51.51.54.49.86.68,1.66.68,1.37-.03,3.51,0,4.68,0v-2.85c0-.63.51-1.14,1.14-1.14s1.11.51,1.11,1.14v2.71c0,1.34-1.08,2.4-2.43,2.4h-4.17c-1.6,0-2.57-.31-3.88-1.6-1.09-1.08-1.6-1.74-1.6-3.88v-4.68c0-1.97.63-2.91,1.6-3.88,1.34-1.34,2.34-1.6,3.88-1.6h4.17Z"/>
          <path d="M631.62,820.26c1.83,0,2.57.29,3.88,1.6,1.26,1.26,1.6,2.23,1.6,3.85v9.5c0,.63-.51,1.14-1.14,1.14s-1.11-.51-1.11-1.14c0-2.25.06-7.59,0-9.85-.03-.71-.23-1.14-.69-1.66-.17-.17-.34-.34-.51-.51-.46-.46-.88-.68-1.65-.68h-4.42v12.7c0,.63-.51,1.14-1.14,1.14s-1.14-.51-1.14-1.14v-19.32c0-.63.51-1.14,1.14-1.14s1.14.51,1.14,1.14v4.37h4.05Z"/>
          <path d="M653.06,825.02v-2.51h-8.39c-.6,0-1.11-.51-1.11-1.14s.51-1.14,1.11-1.14h8.22c1.34,0,2.43,1.11,2.43,2.43v10.82c0,1.34-1.08,2.43-2.43,2.43h-4.48c-1.51,0-2.68-.34-3.97-1.63-1.17-1.17-1.57-1.88-1.57-3.8s.4-2.65,1.57-3.79c1.31-1.31,2.23-1.66,3.97-1.66h4.65ZM646.32,832.96c.49.49,1,.68,1.66.68h5.08v-6.34h-5.08c-.6,0-1.17.2-1.66.69-.17.14-.34.34-.51.51-.48.49-.68.86-.68,1.65v.63c0,.71.11,1.09.68,1.66.17.17.34.34.51.51Z"/>
          <path d="M664.45,816.72c0,.63-.51,1.14-1.14,1.14s-1.14-.51-1.14-1.14v-2.43c0-.63.51-1.14,1.14-1.14s1.14.51,1.14,1.14v2.43ZM662.16,821.11c0-.63.51-1.14,1.14-1.14s1.14.51,1.14,1.14v14.1c0,.63-.51,1.14-1.14,1.14s-1.14-.51-1.14-1.14v-14.1Z"/>
          <path d="M674.38,822.51v12.67c0,.63-.51,1.14-1.14,1.14s-1.11-.51-1.11-1.14v-12.5c0-1.45,1.11-2.43,2.43-2.43h3.97c2.17,0,2.68.4,3.88,1.6,1.08,1.08,1.6,1.85,1.6,3.88v9.45c0,.63-.49,1.11-1.11,1.11s-1.14-.49-1.14-1.11v-9.82c0-.63-.06-1.03-.69-1.66-.17-.17-.34-.34-.51-.51-.43-.43-.71-.68-1.66-.68h-4.51Z"/>
        </g>
        <g>
          <path d="M328.52,854.71h2.94c.63,0,1.14.49,1.14,1.11s-.51,1.14-1.14,1.14h-2.94v12.79c0,.63-.51,1.14-1.14,1.14s-1.11-.51-1.11-1.14v-12.79h-2.23c-.63,0-1.14-.51-1.14-1.14s.51-1.11,1.14-1.11h2.23v-2.77c0-1.34,1.08-2.43,2.43-2.43l2.48-.03c.63,0,1.14.51,1.14,1.14s-.51,1.11-1.14,1.11h-2.65v2.97Z"/>
          <path d="M344.93,854.68c1.74,0,2.63.34,3.88,1.6,1.26,1.26,1.63,2.14,1.63,3.88v4.74c0,2.11-.49,2.74-1.63,3.88-1.26,1.26-2.28,1.6-3.88,1.6h-1.74c-1.54,0-2.57-.29-3.85-1.6-1.17-1.17-1.63-1.88-1.63-3.88v-4.74c0-2.11.34-2.6,1.63-3.88,1.2-1.2,2.23-1.6,3.85-1.6h1.74ZM348.15,859.79c0-.8-.23-1.11-.68-1.66-.14-.17-.34-.34-.51-.51-.57-.57-.8-.66-1.66-.68h-2.45c-.8,0-1.06.14-1.65.68-.2.17-.34.34-.51.51-.54.54-.68.91-.68,1.66v5.48c0,.66.03,1,.68,1.65.17.14.34.34.51.51.48.49,1.11.69,1.65.69h2.45c.89,0,1.06-.09,1.66-.69.17-.17.34-.37.51-.51.54-.54.68-.97.68-1.65v-5.48Z"/>
          <path d="M359.4,861.1v8.59c0,.6-.51,1.11-1.14,1.11s-1.11-.51-1.11-1.11v-14.24c0-.63.48-1.11,1.11-1.11s1.14.49,1.14,1.11v2.45l2-2c1.26-1.26,1.37-1.34,3.28-1.34.63,0,1.14.51,1.14,1.14s-.51,1.14-1.14,1.14h-1.03l-4.25,4.25Z"/>
          <path d="M395.17,864.95c0,1.6-.48,2.74-1.6,3.88-1.26,1.26-2.2,1.6-3.94,1.6h-3.4c-2.03,0-2.83-.57-3.88-1.6-1.37-1.4-1.6-2.34-1.6-3.88v-9.82c0-1.6.49-2.77,1.6-3.88,1.26-1.26,2.2-1.63,3.94-1.63h3.4c2.03,0,2.83.6,3.85,1.63,1.4,1.37,1.63,2.31,1.63,3.88v9.82ZM383.01,865.29c0,.57.11.97.71,1.68.14.17.34.34.51.51.4.4.71.66,1.65.66,1.14,0,2.57.03,4.17,0,.77,0,1.06-.09,1.66-.66.17-.17.37-.34.51-.51.6-.68.68-1,.68-1.65l-.03-10.56c0-.57-.09-.94-.68-1.65-.14-.2-.34-.34-.51-.51-.4-.4-.71-.69-1.66-.69-1.17,0-2.57-.03-4.17,0-.77.03-1.06.12-1.66.69-.17.14-.37.31-.51.51-.6.69-.68.97-.68,1.65v10.53Z"/>
          <path d="M404.27,861.84v8.05c0,.6-.49,1.11-1.11,1.11s-1.14-.51-1.14-1.11v-17.84c0-1.34,1.08-2.43,2.43-2.43h5.94c2.14,0,2.85.6,3.85,1.63,1.34,1.31,1.63,2.2,1.63,3.85v1.23c0,2.08-.4,2.74-1.63,3.88-1.14,1.11-1.94,1.63-3.85,1.63h-6.11ZM412.38,852.59c-.48-.51-.91-.69-1.65-.69h-6.45v7.65h6.45c.74,0,1.2-.23,1.65-.69.17-.17.37-.34.51-.51.51-.51.68-1.03.68-1.65v-1.94c0-.63-.23-1.23-.68-1.65-.17-.17-.34-.34-.51-.51Z"/>
          <path d="M431.33,854.65c1.34,0,2.43,1.08,2.43,2.43l-.03,4.03c0,1.34-1.08,2.43-2.43,2.43h-7.65v1.68c0,.77.11,1.06.68,1.66.17.17.34.34.51.51.57.54,1,.68,1.66.68h4.97v-1.34c0-.63.51-1.14,1.14-1.14s1.14.51,1.14,1.14l-.03,1.17c0,1.34-1.08,2.43-2.43,2.43h-4.42c-1.94,0-2.54-.26-3.88-1.6-1.08-1.08-1.6-1.57-1.6-3.88v-4.71c0-1.94.31-2.6,1.6-3.88,1.11-1.11,1.83-1.6,3.88-1.6h4.45ZM423.66,861.27h7.82v-4.37h-4.97c-.66,0-1,.11-1.66.68-.17.17-.34.37-.51.51-.54.54-.68.86-.68,1.66v1.51Z"/>
          <path d="M443.64,861.1v8.59c0,.6-.51,1.11-1.14,1.11s-1.11-.51-1.11-1.11v-14.24c0-.63.48-1.11,1.11-1.11s1.14.49,1.14,1.11v2.45l2-2c1.26-1.26,1.37-1.34,3.28-1.34.63,0,1.14.51,1.14,1.14s-.51,1.14-1.14,1.14h-1.03l-4.25,4.25Z"/>
          <path d="M465.96,859.44v-2.51h-8.39c-.6,0-1.11-.51-1.11-1.14s.51-1.14,1.11-1.14h8.22c1.34,0,2.43,1.11,2.43,2.43v10.82c0,1.34-1.08,2.43-2.43,2.43h-4.48c-1.51,0-2.68-.34-3.97-1.63-1.17-1.17-1.57-1.88-1.57-3.8s.4-2.65,1.57-3.79c1.31-1.31,2.23-1.66,3.97-1.66h4.65ZM459.22,867.38c.49.49,1,.68,1.66.68h5.08v-6.34h-5.08c-.6,0-1.17.2-1.66.69-.17.14-.34.34-.51.51-.48.49-.68.86-.68,1.65v.63c0,.71.11,1.09.68,1.66.17.17.34.34.51.51Z"/>
          <path d="M479.34,854.71h2.74c.6,0,1.11.51,1.11,1.11,0,.63-.51,1.14-1.11,1.14h-2.74v11.13h2.51c.63,0,1.11.49,1.11,1.11s-.49,1.14-1.11,1.14h-2.34c-1.34,0-2.43-1.11-2.43-2.45v-10.93h-1.6c-.63,0-1.14-.51-1.14-1.14s.51-1.11,1.14-1.11h1.6v-2.45c0-.63.48-1.14,1.11-1.14s1.14.51,1.14,1.14v2.45Z"/>
          <path d="M495.98,854.68c1.74,0,2.63.34,3.88,1.6,1.26,1.26,1.63,2.14,1.63,3.88v4.74c0,2.11-.49,2.74-1.63,3.88-1.26,1.26-2.28,1.6-3.88,1.6h-1.74c-1.54,0-2.57-.29-3.85-1.6-1.17-1.17-1.63-1.88-1.63-3.88v-4.74c0-2.11.34-2.6,1.63-3.88,1.2-1.2,2.23-1.6,3.85-1.6h1.74ZM499.21,859.79c0-.8-.23-1.11-.68-1.66-.14-.17-.34-.34-.51-.51-.57-.57-.8-.66-1.66-.68h-2.45c-.8,0-1.06.14-1.65.68-.2.17-.34.34-.51.51-.54.54-.68.91-.68,1.66v5.48c0,.66.03,1,.68,1.65.17.14.34.34.51.51.48.49,1.11.69,1.65.69h2.45c.89,0,1.06-.09,1.66-.69.17-.17.34-.37.51-.51.54-.54.68-.97.68-1.65v-5.48Z"/>
          <path d="M510.46,861.1v8.59c0,.6-.51,1.11-1.14,1.11s-1.11-.51-1.11-1.11v-14.24c0-.63.48-1.11,1.11-1.11s1.14.49,1.14,1.11v2.45l2-2c1.26-1.26,1.37-1.34,3.28-1.34.63,0,1.14.51,1.14,1.14s-.51,1.14-1.14,1.14h-1.03l-4.25,4.25Z"/>
          <path d="M532.52,866.89c0,.91-.37,1.8-1.03,2.45-.66.66-1.54,1-2.45,1h-3.57c-1.17,0-1.66-.2-2.48-1-.69-.71-1-1.2-1-2.45v-1.43c0-.63.49-1.11,1.11-1.11s1.14.49,1.14,1.11v1.43c0,.4,0,.49.37.86.2.23.51.34.86.34h3.57c.37,0,.54-.03.86-.34.31-.31.34-.54.34-.86v-1.17c0-.77-.17-1.03-.91-1.25l-4.91-1.57c-1.34-.4-2.34-1.6-2.34-3.14v-1.6c-.03-1.28.34-1.8,1-2.45.71-.71,1.26-1.03,2.45-1.03h3.57c1.34,0,1.74.29,2.48,1.03.77.77,1,1.28,1,2.45v1.26c0,.63-.49,1.11-1.11,1.11s-1.14-.48-1.14-1.11v-1.26c.03-.43-.14-.63-.37-.86-.2-.26-.46-.37-.94-.37h-3.45c-.37,0-.54.03-.88.37-.26.26-.34.43-.34.86v1.34c0,.77.26,1.06.91,1.25l4.94,1.6c1.4.4,2.34,1.69,2.34,3.11v1.43Z"/>
          <path d="M566.15,866.78c-.34.51-1.06.66-1.57.32l-2.37-1.4c.03.97.06,1.46-.83,2.48l-.49.49c-1.28,1.28-2.25,1.71-4.17,1.71h-2.31c-1.68,0-2.57-.31-3.88-1.6-1.54-1.57-1.6-2.2-1.6-3.88v-.29c0-2.17.89-2.94,2.11-3.65l2.14-1.23-1.6-1.03c-1.57-1.03-2.03-1.6-2.03-3.77v-.43c0-1.4.2-2.31,1.46-3.57.97-.97,1.88-1.4,3.68-1.4h1.91c1.85,0,2.68.51,3.65,1.48,1.31,1.31,1.43,2.17,1.43,3.48l-.03.49c0,1.46-.14,2.48-2.11,3.62-.66.37-1.37.8-2.14,1.23l2.71,1.74,1,.63,1.74-1.6c.63-.6,1.4-.71,1.85-.29.57.49.37,1.28-.14,1.77l-1.57,1.34,2.8,1.77c.51.34.66,1.03.34,1.57ZM560.12,864.27l-4.8-3.23c-1.28.74-2.48,1.51-3.28,1.97-.6.34-.83.69-.83,1.46v.8c0,.6.23,1.2.68,1.65.14.14.34.34.51.51.43.43,1.03.74,1.66.74h3.17c.63,0,1.14-.29,1.63-.69.29-.23.43-.4.6-.57.68-.8.66-1.11.66-1.65v-1ZM555.39,858.53l3.2-1.91c.4-.23.83-.69.83-1.51v-.77c0-.69.03-.94-.57-1.74-.06-.06-.17-.2-.26-.29-.37-.4-1-.6-1.8-.6h-2.4c-.46,0-1.26.11-1.83.68-.06.06-.14.14-.2.2-.34.34-.57,1.03-.54,1.74v.86c0,.8.26,1.14.83,1.48l2.74,1.85Z"/>
          <path d="M595.75,864.92c0,1.97-.37,2.66-1.63,3.88-1.06,1.08-1.91,1.6-3.85,1.6h-3.28c-1.4,0-2.57-.31-3.88-1.6-1.26-1.26-1.6-1.65-1.6-3.88v-14.75c0-.63.51-1.14,1.14-1.14s1.11.51,1.11,1.14v15.13c0,.88.17,1.11.69,1.65.17.17.37.34.51.51.51.49.97.66,1.68.69,1.48.06,2.66.06,3.97-.03.83-.06,1.11-.17,1.63-.66.17-.17.4-.34.54-.51.6-.71.69-1.03.69-1.65v-15.13c0-.63.51-1.14,1.14-1.14s1.14.51,1.14,1.14v14.75Z"/>
          <path d="M615.76,864.92c0,2-.4,2.54-1.6,3.88-1.37,1.51-2.14,1.6-3.88,1.6h-2.37c-1.85-.03-2.57-.31-3.88-1.6-1.08-1.08-1.6-1.57-1.6-3.88v-1.94c0-.63.49-1.14,1.11-1.14s1.14.51,1.14,1.14v2.28c0,.94.23,1.23.69,1.65.17.17.34.37.51.51.43.46,1.03.71,1.65.71,1.06,0,2.06.03,3.11,0,.8-.03,1.06-.23,1.66-.71.17-.14.37-.31.51-.51.63-.74.66-.94.68-1.65.03-.54,0-1.46,0-2.14,0-.57-.37-1.08-.91-1.25l-7.68-1.85c-1.4-.43-2.31-1.71-2.31-3.14v-1.83c0-1.83.2-2.48,1.6-3.85,1.31-1.34,2-1.57,3.88-1.57h2.17c2.06,0,2.68.4,3.85,1.6,1.11,1.11,1.65,1.85,1.63,3.88v1.43c0,.63-.51,1.14-1.14,1.14s-1.14-.51-1.14-1.14c0-.37.03-1.43,0-1.8,0-.83-.23-1.23-.69-1.65-.17-.17-.34-.34-.51-.51-.51-.51-.91-.69-1.65-.69h-2.88c-.83,0-1,.03-1.66.69-.17.17-.34.34-.51.51-.43.43-.66.74-.68,1.65-.03.4,0,1.4,0,1.89,0,.8.34,1.08.91,1.28l7.68,1.91c1.4.43,2.31,1.71,2.31,3.14v1.97Z"/>
          <path d="M632.17,854.65c1.34,0,2.43,1.08,2.43,2.43l-.03,4.03c0,1.34-1.08,2.43-2.43,2.43h-7.65v1.68c0,.77.11,1.06.68,1.66.17.17.34.34.51.51.57.54,1,.68,1.66.68h4.97v-1.34c0-.63.51-1.14,1.14-1.14s1.14.51,1.14,1.14l-.03,1.17c0,1.34-1.08,2.43-2.43,2.43h-4.42c-1.94,0-2.54-.26-3.88-1.6-1.08-1.08-1.6-1.57-1.6-3.88v-4.71c0-1.94.31-2.6,1.6-3.88,1.11-1.11,1.83-1.6,3.88-1.6h4.45ZM624.49,861.27h7.82v-4.37h-4.97c-.66,0-1,.11-1.66.68-.17.17-.34.37-.51.51-.54.54-.68.86-.68,1.66v1.51Z"/>
          <path d="M644.47,861.1v8.59c0,.6-.51,1.11-1.14,1.11s-1.11-.51-1.11-1.11v-14.24c0-.63.48-1.11,1.11-1.11s1.14.49,1.14,1.11v2.45l2-2c1.26-1.26,1.37-1.34,3.28-1.34.63,0,1.14.51,1.14,1.14s-.51,1.14-1.14,1.14h-1.03l-4.25,4.25Z"/>
          <path d="M666.54,866.89c0,.91-.37,1.8-1.03,2.45-.66.66-1.54,1-2.45,1h-3.57c-1.17,0-1.66-.2-2.48-1-.69-.71-1-1.2-1-2.45v-1.43c0-.63.49-1.11,1.11-1.11s1.14.49,1.14,1.11v1.43c0,.4,0,.49.37.86.2.23.51.34.86.34h3.57c.37,0,.54-.03.86-.34.31-.31.34-.54.34-.86v-1.17c0-.77-.17-1.03-.91-1.25l-4.91-1.57c-1.34-.4-2.34-1.6-2.34-3.14v-1.6c-.03-1.28.34-1.8,1-2.45.71-.71,1.26-1.03,2.45-1.03h3.57c1.34,0,1.74.29,2.48,1.03.77.77,1,1.28,1,2.45v1.26c0,.63-.48,1.11-1.11,1.11s-1.14-.48-1.14-1.11v-1.26c.03-.43-.14-.63-.37-.86-.2-.26-.46-.37-.94-.37h-3.45c-.37,0-.54.03-.88.37-.26.26-.34.43-.34.86v1.34c0,.77.26,1.06.91,1.25l4.94,1.6c1.4.4,2.34,1.69,2.34,3.11v1.43Z"/>
        </g>
      </g>
      <rect x="360.86" y="763.81" width="40.36" height="15.75" transform="translate(104.81 1586.79) rotate(-135)"/>
    </g>
    <g>
      <path class="cls-1" d="M450.32,356.52c-4.99-35.36-49.38-21.76-87.15,2.21-.02.02-.04.02-.07.04.13.04.25.07.38.11l.02-.02.87.27s.02,0,.04.02l1.16.36c23.21,7.22,40.91,10.25,54.44,10.32,14.56.13,24.28-3.14,30.83-8.25,0-.91,0-1.81-.04-2.72-.2-.69-.38-1.47-.49-2.34Z"/>
      <path class="cls-1" d="M336.33,339.51c.49.02.98.04,1.47.07,35.31-1.36,60.51-12.24,77.07-25.35.16-.13.33-.29.54-.45.18-.16.38-.33.6-.49.47-.36.91-.71,1.36-1.09.13-.11.29-.24.42-.38,1.05-.94,2.07-1.87,3.05-2.83-13.4,1.4-28.51,5.39-43.12,10.79-15.12,5.6-30.01,12.31-41.4,19.73Z"/>
      <path class="cls-1" d="M566.67,524.17c.18-.31.38-.62.56-.91,9.79-16.03,14.8-28.45,16.7-38.08.09-.42.16-.87.22-1.27-12.86,11.46-17.28,26.04-17.48,40.26Z"/>
      <path class="cls-1" d="M748.93,294.36c4.21,0,7.65-12.17,7.65-27.24s-3.43-27.22-7.65-27.22-7.65,12.2-7.65,27.22,3.43,27.24,7.65,27.24Z"/>
      <path class="cls-1" d="M423.34,393.37c-.42.29-.85.58-1.25.87-.13.09-.27.18-.4.29-.82.58-1.65,1.18-2.47,1.78-.04.04-.09.09-.16.13-.85.65-1.69,1.31-2.52,2.01,16.16-3.59,25.04-10.3,29.67-18.15-7.54,3.19-15.52,7.92-23.01,13.13l.13-.07Z"/>
      <path class="cls-1" d="M717.07,268.21c5.19,0,9.43-15.05,9.43-33.64s-4.24-33.64-9.43-33.64-9.43,15.05-9.43,33.64,4.21,33.64,9.43,33.64Z"/>
      <path class="cls-1" d="M463.88,482.48c-8.65,9.94-15.09,20.64-19.91,31.37,18.19-12.35,28.47-27.33,33.6-42.89.11-.33.22-.69.31-1.03-5.13,3.81-9.79,8.05-14,12.55Z"/>
      <path class="cls-5" d="M478.63,396.16c.02-.07-.02-.13,0-.22-.07-.36-.09-.76-.07-1.2v-.02c0-.4-.02-.87-.04-1.27,0-.83-.07-1.69-.16-2.45-.02-.4-.09-.78-.09-1.18-2.21-16.34-16.07-16.34-32.06-9.5-4.64,7.85-13.51,14.56-29.67,18.15-13.93,11.53-25.79,27.76-27.44,30.01-.11.18-.18.27-.18.27-12.84,18.24-36.58,25.7-57.36,16.03-8.25-3.84-14.8-9.81-19.35-16.94-1.05,2.45-1.92,5.04-2.52,7.71-5.66,24.79,9.81,49.43,34.6,55.09,22.34,5.11,43.99-7.2,52.7-27.71,0,0,.04-.11.13-.31,1.18-2.7,10.32-23.14,22.56-37.59.04-.07.09-.11.13-.16.67-.78,1.34-1.54,2.03-2.27.11-.13.22-.25.33-.36.33-.38.69-.76,1.05-1.11l-.11.09c19.44-20.89,44.83-37.94,53.06-15.12.09.38.22.74.33,1.14.25.71.49,1.56.67,2.36.11.38.22.82.31,1.23v.02c.09.45.18.83.33,1.16-.02.09.04.16.04.22.09.38.2.78.29,1.16.42-4.61.58-9.18.54-13.6,0-1.23-.02-2.41-.07-3.61Z"/>
      <path class="cls-5" d="M584.15,483.91c-.07.4-.13.85-.22,1.27-1.89,9.63-6.91,22.05-16.7,38.08-.18.29-.38.6-.56.91-.29,18.46,6.55,36.32,11.44,46.1,11.37,22.76,2.1,50.38-20.58,61.73-.16.09-.33.16-.49.22.22.11.45.22.67.31,15.09,6.49,33.13,4.64,46.84-6.33,19.8-15.85,23.05-44.81,7.16-64.68-12.33-15.4-36.45-55.24-10.88-87.5.33-.42.67-.82,1-1.25-6.31,2.79-11.59,6.06-15.96,9.65-.58.49-1.16.98-1.72,1.47Z"/>
      <path class="cls-5" d="M438.26,286.81c.2-.11.42-.24.69-.36.51-.25,1.03-.49,1.54-.78.16-.07.33-.18.51-.27,17.39-9.7,27.47-25.15,32.86-39.59.02-.04.02-.09.02-.09,23.14-60.73,81.84-103.96,150.71-104.09,22.78-.02,44.48,4.66,64.14,13.15-34.73-22.43-78.03-31.52-121.64-22.09-67.31,14.6-115.62,69.2-125.47,133.43,0,0,0,.04-.02.09-1.05,7.13-3.05,14.71-6.44,22.09.85-.38,1.67-.76,2.47-1.16.18-.11.38-.22.62-.34Z"/>
      <path class="cls-5" d="M309.31,383.63c1.27-2.72,2.79-5.26,4.48-7.62,10.7-14.65,29.12-21.65,46.77-17.86.85.2,1.69.38,2.54.62.02-.02.04-.02.07-.04,37.77-23.97,82.15-37.57,87.15-2.21.11.87.29,1.65.49,2.34.04.91.04,1.8.04,2.72,1.61-1.25,3.01-2.59,4.26-4.04,3.92-4.61,6.2-10.08,7.54-15.67.27-1.18.54-2.36.74-3.54-.04-.74-.07-1.54.02-2.41,1.65-23.21-17.43-29.61-42.56-26.93-.98.96-2.01,1.9-3.05,2.83-.13.13-.29.27-.42.38-.45.38-.89.74-1.36,1.09-.22.16-.42.34-.6.49-.2.16-.38.31-.54.45-16.56,13.11-41.76,23.99-77.07,25.35-.49-.02-.98-.04-1.47-.07-1.74,1.14-3.39,2.3-4.95,3.46-9.1,6.78-20.13,18.82-20.13,18.82-16.68,15.21-42.09,18.06-62.13,5.42-8.52-5.39-14.91-12.86-18.97-21.33-5.8,5.35-10.46,12.13-13.38,20.09-9.81,26.73,3.9,56.36,30.63,66.17,21.91,8.03,45.81.24,59.03-17.59-2.56-9.96-1.81-20.85,2.88-30.9Z"/>
      <path class="cls-5" d="M544.62,451.22c-1.27-.09-2.56-.16-3.81-.2-26.02-.98-46.77,6.87-62.94,18.91-.09.33-.2.69-.31,1.03-5.13,15.56-15.4,30.54-33.6,42.89-8.2,18.17-11.82,36.45-13.8,51.36-.04.25-.07.47-.11.71v.04c-4.37,28.07-28.63,49.58-57.94,49.65-6.93,0-13.58-1.18-19.75-3.41,9.99,26.98,38.52,43.18,67.48,36.94,28.65-6.22,47.84-32.35,46.22-60.71v-.07c-.02-.22-.04-.47-.07-.69-1.87-23.88-1.56-56.89,15.58-87.99,13.22-21.96,34.85-40.98,68.6-46.91.18-.02.33-.07.51-.09-2.9-.91-5.19-1.31-6.02-1.45l-.04-.02Z"/>
      <path class="cls-2" d="M354.46,399.86c1,0,2.01.02,3.01.09v-.02l.91.09h.04l1.2.11c24.21,2.18,42.16,1.43,55.4-1.34.51-.11,1-.22,1.52-.33.82-.69,1.67-1.36,2.52-2.01.07-.04.11-.09.16-.13.82-.6,1.65-1.2,2.47-1.78.13-.11.27-.2.4-.29.4-.29.82-.58,1.25-.87l-.13.07c7.49-5.22,15.47-9.94,23.01-13.13.2-.31.36-.6.54-.91,2.88-5.33,3.95-11.15,4.08-16.9,0-.31,0-.6.02-.91-6.55,5.11-16.27,8.38-30.83,8.25-13.53-.07-31.23-3.1-54.44-10.32l-1.16-.36s-.04-.02-.04-.02l-.87-.27-.02.02c-.13-.04-.25-.07-.38-.11-15.65,9.94-30.68,21.29-40.37,32.37-7.47,8.54-15.74,22.63-15.74,22.63-.18.27-.38.51-.56.76,1.2,4.7,3.17,9.19,5.77,13.29.07-.24.18-.47.27-.69,7.38-16.56,23.92-27.27,41.98-27.27Z"/>
      <path class="cls-2" d="M539.92,619.03c-14.29-17.88-13.09-43.14,1.78-59.55l.02-.04c10.48-13.33,18.66-25.06,24.95-35.27.2-14.22,4.62-28.8,17.48-40.26,5.64-32.88-26.55-31.92-30.14-31.72h-.04c-1.09.16-2.21.33-3.28.51,9.92,3.14,26.91,12.33,16.3,37.1-3.86,9.01-11.37,20.09-24.32,33.71-8.4,8.87-19.08,18.86-32.53,30.03l-.04.02c-17.97,12.93-24.46,37.36-14.25,57.85,3.54,7,8.58,12.73,14.56,16.94,13.27,9.43,31.03,11.46,46.64,3.88-6.47-2.85-12.35-7.29-17.12-13.2Z"/>
      <path class="cls-2" d="M739.59,189.49c-14.47-14.63-31.7-26.46-50.85-34.71.29.18.56.36.85.53,34.33,22.41,60.22,57.81,69.58,101.04,17.84,82.24-30.45,163.39-109.15,188.18-.42.2-.91.36-1.49.49-.04.02-.09.02-.13.04-1.29.4-2.63.74-3.95,1.09-8.45,2.74-19.35,8.36-20.87,9.14-9.41,5.37-16.5,11.28-21.71,17.46,3.14-1.4,6.53-2.7,10.19-3.86,1.63-.45,13.47-3.66,22.32-4.55,1.36-.09,2.72-.13,4.08-.24h.13c.6-.02,1.11-.09,1.58-.18,82.13-7.71,146.38-76.91,146.25-161.05-.09-44.23-17.95-84.27-46.82-113.39Z"/>
      <path class="cls-2" d="M376.59,541.78s7-4.93,19.73-7.71c4.33-.96,8.63-1.98,12.8-3.39,13.42-4.55,24.52-9.97,33.69-16.05.38-.27.78-.51,1.16-.78,4.82-10.72,11.26-21.43,19.91-31.37,4.21-4.5,8.87-8.74,14-12.55,5.86-18.44,4.57-37.63.82-54.2-.18-.8-.36-1.58-.54-2.36-1.23,13.47-4.73,27.49-12.17,40.15-8.47,14.45-22.05,27.15-43.16,35.4-10.23,4.04-22.23,7-36.29,8.63-4.37.49-8.81.58-13.22.62-13.04.04-20.91,3.39-20.91,3.39-22.83,8.05-39.17,29.83-39.13,55.4.04,2.83.22,5.64.62,8.36,3.14,21.8,18.26,39.73,38.46,46.88-.96-2.59-1.74-5.28-2.36-8.05-5.42-24.99,5.97-49.72,26.6-62.38Z"/>
      <path class="cls-2" d="M273.33,332.8v-.02s30.41,5.26,63,6.73c11.39-7.42,26.28-14.13,41.4-19.73,14.6-5.39,29.72-9.39,43.12-10.79,6.38-6.31,11.01-13.4,14.31-20.69-18.77,8.61-44.86,13.24-78.21,7.42-32.13-8.32-61.6-20.2-61.6-20.2v.02c-14.67-5.73-30.92-4.28-44.21,3.25-7.13,4.06-13.38,9.85-18.06,17.28-9.83,15.56-10.3,34.33-2.94,49.78.22-.22.42-.4.65-.6,11.41-10.14,27-14.98,42.54-12.46Z"/>
      <path class="cls-4" d="M322.73,391.14c9.7-11.08,24.72-22.43,40.37-32.37-.85-.25-1.69-.42-2.54-.62-17.66-3.79-36.07,3.21-46.77,17.86-1.69,2.36-3.21,4.9-4.48,7.62-4.68,10.05-5.44,20.93-2.88,30.9.18-.24.38-.49.56-.76,0,0,8.27-14.09,15.74-22.63Z"/>
      <path class="cls-4" d="M249.12,367.2c20.04,12.64,45.46,9.79,62.13-5.42,0,0,11.04-12.04,20.13-18.82,1.56-1.16,3.21-2.32,4.95-3.46-32.59-1.47-63-6.73-63-6.73v.02c-15.54-2.52-31.12,2.32-42.54,12.46-.22.2-.42.38-.65.6,4.06,8.47,10.46,15.94,18.97,21.33Z"/>
      <path class="cls-4" d="M623.57,455.3c1.52-.78,12.42-6.4,20.87-9.14,1.32-.36,2.65-.69,3.95-1.09.04-.02.09-.02.13-.04.58-.13,1.07-.29,1.49-.49,78.7-24.79,126.99-105.94,109.15-188.18-9.36-43.23-35.25-78.63-69.58-101.04-.29-.18-.56-.36-.85-.53-19.66-8.49-41.36-13.18-64.14-13.15-68.87.13-127.57,43.36-150.71,104.09,0,0,0,.04-.02.09-5.4,14.45-15.47,29.9-32.86,39.59-.18.09-.36.2-.51.27-.51.29-1.03.53-1.54.78-.27.11-.49.24-.69.36-.25.11-.45.22-.62.34-.8.4-1.63.78-2.47,1.16-3.3,7.29-7.94,14.38-14.31,20.69,25.13-2.68,44.21,3.72,42.56,26.93-.09.87-.07,1.67-.02,2.41-.2,1.18-.47,2.36-.74,3.54-1.34,5.6-3.61,11.06-7.54,15.67-1.25,1.45-2.65,2.79-4.26,4.04-.02.31-.02.6-.02.91-.13,5.75-1.2,11.57-4.08,16.9-.18.31-.33.6-.54.91,15.98-6.84,29.85-6.84,32.06,9.5,0,.4.07.78.09,1.18.09.76.16,1.63.16,2.45.02.4.04.87.04,1.27v.02c-.02.45,0,.85.07,1.2-.02.09.02.16,0,.22.04,1.2.07,2.39.07,3.61.04,4.42-.11,8.99-.54,13.6.18.78.36,1.56.54,2.36,3.75,16.56,5.04,35.76-.82,54.2,16.16-12.04,36.92-19.89,62.94-18.91,1.25.04,2.54.11,3.81.2l.04.02c.82.13,3.12.53,6.02,1.45,1.07-.18,2.18-.36,3.28-.51h.04c3.59-.2,35.78-1.16,30.14,31.72.56-.49,1.14-.98,1.72-1.47,4.37-3.59,9.65-6.87,15.96-9.65,0,0,0-.02.02-.02,5.22-6.18,12.31-12.08,21.71-17.46ZM748.93,239.9c4.21,0,7.65,12.2,7.65,27.22s-3.43,27.24-7.65,27.24-7.65-12.17-7.65-27.24,3.43-27.22,7.65-27.22ZM717.07,200.93c5.19,0,9.43,15.05,9.43,33.64s-4.24,33.64-9.43,33.64-9.43-15.05-9.43-33.64,4.21-33.64,9.43-33.64Z"/>
      <path class="cls-4" d="M578.11,570.27c-4.88-9.79-11.73-27.65-11.44-46.1-6.29,10.21-14.47,21.94-24.95,35.27l-.02.04c-14.87,16.41-16.07,41.67-1.78,59.55,4.77,5.91,10.66,10.34,17.12,13.2.16-.07.33-.13.49-.22,22.67-11.35,31.95-38.97,20.58-61.73Z"/>
      <path class="cls-4" d="M331.56,444.76c20.78,9.68,44.52,2.21,57.36-16.03,0,0,.07-.09.18-.27,1.65-2.25,13.51-18.48,27.44-30.01-.51.11-1,.22-1.52.33-13.24,2.76-31.19,3.52-55.4,1.34l-1.2-.11h-.04l-.91-.09v.02c-1-.07-2.01-.09-3.01-.09-18.06,0-34.6,10.7-41.98,27.27-.09.22-.2.45-.27.69,4.55,7.13,11.1,13.11,19.35,16.94Z"/>
      <path class="cls-4" d="M430.06,565.97v-.04c.04-.24.07-.47.11-.71,1.98-14.91,5.6-33.2,13.8-51.36-.38.27-.78.51-1.16.78-9.16,6.09-20.27,11.5-33.69,16.05-4.17,1.4-8.47,2.43-12.8,3.39-12.73,2.79-19.73,7.71-19.73,7.71-20.62,12.66-32.01,37.39-26.6,62.38.62,2.76,1.4,5.46,2.36,8.05,6.18,2.23,12.82,3.41,19.75,3.41,29.32-.07,53.57-21.58,57.94-49.65Z"/>
    </g>
  </g>
</svg>