<?xml version="1.0" encoding="UTF-8"?>
<svg id="_レイヤー_1" data-name="レイヤー 1" xmlns="http://www.w3.org/2000/svg" viewBox="0 0 2000 500">
  <defs>
    <style>
      .cls-1 {
        fill: none;
      }

      .cls-2 {
        fill: #1f1fdd;
      }

      .cls-3 {
        fill: #fff;
      }

      .cls-4 {
        fill: #180d21;
      }

      .cls-5 {
        fill: #e21331;
      }
    </style>
  </defs>
  <ellipse class="cls-3" cx="545.17" cy="159.89" rx="21.26" ry="52.91" transform="translate(9.7 349.75) rotate(-35.87)"/>
  <g>
    <g>
      <g>
        <g>
          <path d="M706.15,172.09c0-10.76,2.05-20.97,6.16-30.61,4.11-9.63,9.81-18.17,17.11-25.61,7.3-7.44,15.76-13.29,25.4-17.54,9.64-4.25,19.98-6.37,31.04-6.37s21.18,2.13,30.82,6.37c9.63,4.25,18.17,10.1,25.61,17.54,7.44,7.44,13.25,15.98,17.43,25.61,4.18,9.64,6.27,19.84,6.27,30.61s-2.09,21.4-6.27,31.04c-4.18,9.64-9.99,18.1-17.43,25.4s-15.98,13-25.61,17.11c-9.64,4.11-19.91,6.16-30.82,6.16s-21.4-2.05-31.04-6.16c-9.64-4.11-18.1-9.81-25.4-17.11-7.3-7.3-13-15.76-17.11-25.4-4.11-9.63-6.16-19.98-6.16-31.04ZM738.03,172.09c0,6.94,1.24,13.43,3.72,19.45,2.48,6.02,5.95,11.34,10.42,15.94,4.46,4.61,9.63,8.18,15.52,10.74,5.88,2.55,12.29,3.82,19.24,3.82s12.86-1.27,18.6-3.82c5.74-2.55,10.73-6.13,14.99-10.74,4.25-4.61,7.58-9.92,9.99-15.94,2.41-6.02,3.61-12.51,3.61-19.45s-1.24-13.67-3.72-19.77c-2.48-6.09-5.88-11.44-10.2-16.05-4.33-4.6-9.39-8.18-15.2-10.73-5.81-2.55-12.12-3.83-18.92-3.83s-13.11,1.27-18.92,3.83c-5.81,2.55-10.91,6.13-15.31,10.73-4.39,4.61-7.79,9.96-10.2,16.05-2.41,6.09-3.61,12.68-3.61,19.77Z"/>
          <path d="M887.26,172.09c0-10.76,2.05-20.97,6.16-30.61,4.11-9.63,9.81-18.17,17.11-25.61,7.3-7.44,15.76-13.29,25.4-17.54,9.64-4.25,19.98-6.37,31.04-6.37s21.18,2.13,30.82,6.37c9.63,4.25,18.17,10.1,25.61,17.54,7.44,7.44,13.25,15.98,17.43,25.61,4.18,9.64,6.27,19.84,6.27,30.61s-2.09,21.4-6.27,31.04c-4.18,9.64-9.99,18.1-17.43,25.4-7.44,7.3-15.98,13-25.61,17.11-9.64,4.11-19.91,6.16-30.82,6.16s-21.4-2.05-31.04-6.16c-9.64-4.11-18.1-9.81-25.4-17.11-7.3-7.3-13-15.76-17.11-25.4-4.11-9.63-6.16-19.98-6.16-31.04ZM919.14,172.09c0,6.94,1.24,13.43,3.72,19.45,2.48,6.02,5.95,11.34,10.42,15.94,4.46,4.61,9.63,8.18,15.52,10.74,5.88,2.55,12.29,3.82,19.24,3.82s12.86-1.27,18.6-3.82c5.74-2.55,10.73-6.13,14.99-10.74,4.25-4.61,7.58-9.92,9.99-15.94,2.41-6.02,3.61-12.51,3.61-19.45s-1.24-13.67-3.72-19.77c-2.48-6.09-5.88-11.44-10.2-16.05-4.33-4.6-9.39-8.18-15.2-10.73-5.81-2.55-12.12-3.83-18.92-3.83s-13.11,1.27-18.92,3.83c-5.81,2.55-10.91,6.13-15.31,10.73-4.39,4.61-7.79,9.96-10.2,16.05-2.41,6.09-3.61,12.68-3.61,19.77Z"/>
          <path d="M1063.05,93.65h105.43v29.76h-38.05v126.69h-30.82v-126.69h-36.56v-29.76Z"/>
          <path d="M1180.17,172.09c0-10.76,2.05-20.97,6.16-30.61,4.11-9.63,9.81-18.17,17.11-25.61,7.3-7.44,15.76-13.29,25.4-17.54,9.64-4.25,19.98-6.37,31.04-6.37s21.18,2.13,30.82,6.37c9.63,4.25,18.17,10.1,25.61,17.54,7.44,7.44,13.25,15.98,17.43,25.61,4.18,9.64,6.27,19.84,6.27,30.61s-2.09,21.4-6.27,31.04c-4.18,9.64-9.99,18.1-17.43,25.4-7.44,7.3-15.98,13-25.61,17.11-9.64,4.11-19.91,6.16-30.82,6.16s-21.4-2.05-31.04-6.16c-9.64-4.11-18.1-9.81-25.4-17.11-7.3-7.3-13-15.76-17.11-25.4-4.11-9.63-6.16-19.98-6.16-31.04ZM1212.06,172.09c0,6.94,1.24,13.43,3.72,19.45,2.48,6.02,5.95,11.34,10.42,15.94,4.46,4.61,9.63,8.18,15.52,10.74,5.88,2.55,12.29,3.82,19.24,3.82s12.86-1.27,18.6-3.82c5.74-2.55,10.73-6.13,14.99-10.74,4.25-4.61,7.58-9.92,9.99-15.94,2.41-6.02,3.61-12.51,3.61-19.45s-1.24-13.67-3.72-19.77c-2.48-6.09-5.88-11.44-10.2-16.05-4.33-4.6-9.39-8.18-15.2-10.73-5.81-2.55-12.12-3.83-18.92-3.83s-13.11,1.27-18.92,3.83c-5.81,2.55-10.91,6.13-15.31,10.73-4.39,4.61-7.79,9.96-10.2,16.05-2.41,6.09-3.61,12.68-3.61,19.77Z"/>
          <path d="M1414,93.65c12.89,0,23.81,2.16,32.74,6.48,8.93,4.33,15.73,10.42,20.41,18.28,4.68,7.87,7.01,17.18,7.01,27.95,0,6.38-.96,12.79-2.87,19.24-1.91,6.45-4.96,12.29-9.14,17.54-4.18,5.24-9.78,9.46-16.79,12.65-7.01,3.19-15.62,4.78-25.83,4.78h-22.11v49.53h-30.82V93.65h47.4ZM1419.31,170.61c4.68,0,8.57-.81,11.69-2.45,3.11-1.63,5.56-3.68,7.33-6.16,1.77-2.48,3.04-5.07,3.83-7.76.78-2.69,1.17-5.03,1.17-7.01,0-1.56-.25-3.65-.74-6.27-.5-2.62-1.53-5.28-3.08-7.97-1.56-2.69-3.93-4.96-7.12-6.8-3.19-1.84-7.48-2.76-12.86-2.76h-22.11v47.19h21.89Z"/>
          <path d="M1529.42,192.29c0,4.96,1.49,9.71,4.46,14.24,2.98,4.54,6.91,8.22,11.8,11.06,4.89,2.83,10.24,4.25,16.05,4.25,6.38,0,12.04-1.42,17-4.25,4.96-2.83,8.89-6.52,11.8-11.06,2.9-4.53,4.36-9.28,4.36-14.24v-98.63h30.4v99.27c0,11.48-2.84,21.65-8.5,30.5-5.67,8.86-13.32,15.81-22.96,20.83-9.64,5.03-20.34,7.55-32.1,7.55s-22.21-2.52-31.78-7.55c-9.57-5.03-17.19-11.97-22.85-20.83-5.67-8.85-8.5-19.03-8.5-30.5v-99.27h30.82v98.63Z"/>
          <path d="M1746.02,131.49c-5.95-3.26-12.01-5.95-18.17-8.08-6.16-2.13-11.94-3.19-17.32-3.19-6.66,0-11.91,1.35-15.73,4.04s-5.74,6.73-5.74,12.11c0,3.69,1.45,6.98,4.36,9.88,2.9,2.91,6.66,5.49,11.27,7.76,4.6,2.27,9.39,4.33,14.35,6.16,4.54,1.7,9.04,3.72,13.5,6.06,4.46,2.34,8.47,5.24,12.01,8.71,3.54,3.47,6.38,7.8,8.5,12.97,2.13,5.17,3.19,11.51,3.19,19.03,0,7.94-2.06,15.3-6.16,22.11-4.11,6.81-10.13,12.3-18.07,16.48-7.94,4.18-17.72,6.27-29.33,6.27-5.95,0-12.01-.6-18.17-1.81-6.17-1.2-12.22-3.04-18.17-5.53-5.95-2.48-11.69-5.63-17.22-9.46l13.6-24.02c3.68,2.69,7.68,5.07,12.01,7.12,4.32,2.06,8.68,3.65,13.07,4.78,4.39,1.13,8.43,1.7,12.12,1.7s7.4-.53,11.16-1.6c3.75-1.06,6.87-2.87,9.35-5.42,2.48-2.55,3.72-6.09,3.72-10.63,0-3.12-1.03-5.95-3.08-8.5-2.06-2.55-4.82-4.89-8.29-7.01-3.47-2.13-7.26-3.97-11.37-5.53-4.82-1.84-9.78-3.97-14.88-6.38s-9.88-5.35-14.35-8.82c-4.46-3.47-8.08-7.79-10.84-12.96-2.76-5.17-4.14-11.51-4.14-19.03,0-9.07,2.02-16.93,6.06-23.59,4.04-6.66,9.74-11.94,17.11-15.84,7.37-3.89,15.87-6.06,25.51-6.48,12.61,0,22.85,1.49,30.72,4.47,7.87,2.98,14.91,6.52,21.15,10.63l-11.69,23.59Z"/>
        </g>
        <g>
          <path d="M890.97,330.71c0,3.02-.92,5.18-3.02,7.34-2.37,2.37-4.15,3.02-7.44,3.02h-6.42c-3.83,0-5.34-1.08-7.34-3.02-2.59-2.64-3.02-4.42-3.02-7.34v-18.55c0-3.02.92-5.23,3.02-7.34,2.37-2.37,4.15-3.08,7.44-3.08h6.42c3.83,0,5.34,1.13,7.28,3.08,2.64,2.59,3.08,4.37,3.08,7.34v18.55ZM868,331.36c0,1.08.22,1.83,1.35,3.18.27.32.65.65.97.97.75.75,1.35,1.24,3.13,1.24,2.16,0,4.86.05,7.88,0,1.46,0,1.99-.16,3.13-1.24.32-.32.7-.65.97-.97,1.13-1.3,1.3-1.89,1.3-3.13l-.05-19.96c0-1.08-.16-1.78-1.3-3.12-.27-.38-.65-.65-.97-.97-.75-.75-1.35-1.29-3.13-1.29-2.21,0-4.85-.05-7.87,0-1.46.05-1.99.21-3.13,1.29-.32.27-.7.6-.97.97-1.13,1.29-1.29,1.83-1.29,3.12v19.91Z"/>
          <path d="M914.53,311.3c3.61.05,5.07.81,7.34,3.08,1.99,1.99,3.02,3.67,3.02,7.28v8.9c0,3.88-1.13,5.28-3.02,7.34-2.64,2.7-4.15,3.02-7.34,3.02h-8.31v10.74c0,1.18-.92,2.15-2.11,2.15s-2.16-.97-2.16-2.27v-35.76c0-2.43,2.05-4.48,4.58-4.48h7.98ZM918.36,316.85c-1.08-1.02-1.67-1.3-3.13-1.3h-9.01v21.09h8.95c1.08,0,1.94-.16,3.13-1.3.27-.32.7-.7,1.03-1.02,1.02-1.24,1.29-1.94,1.29-3.13v-10.25c0-1.08-.22-1.99-1.29-3.13-.32-.27-.65-.65-.97-.97Z"/>
          <path d="M953.62,311.24c2.53,0,4.58,2.05,4.58,4.58l-.05,7.6c0,2.54-2.05,4.58-4.58,4.58h-14.46v3.18c0,1.46.22,2,1.3,3.13.32.32.65.65.97.97,1.08,1.02,1.89,1.3,3.13,1.3h9.39v-2.54c0-1.18.97-2.15,2.16-2.15s2.16.97,2.16,2.15l-.05,2.21c0,2.54-2.05,4.58-4.58,4.58h-8.36c-3.67,0-4.8-.49-7.34-3.02-2.05-2.05-3.02-2.97-3.02-7.34v-8.9c0-3.67.59-4.91,3.02-7.34,2.1-2.1,3.45-3.02,7.34-3.02h8.41ZM939.12,323.75h14.78v-8.25h-9.39c-1.24,0-1.89.22-3.13,1.3-.32.32-.65.7-.97.97-1.02,1.02-1.3,1.62-1.3,3.13v2.86Z"/>
          <path d="M974.92,315.56v23.95c0,1.19-.97,2.16-2.16,2.16s-2.11-.97-2.11-2.16v-23.62c0-2.75,2.11-4.58,4.58-4.58h7.5c4.1,0,5.07.76,7.34,3.02,2.05,2.05,3.02,3.5,3.02,7.34v17.85c0,1.19-.92,2.11-2.1,2.11s-2.16-.92-2.16-2.11v-18.55c0-1.19-.11-1.94-1.29-3.13-.32-.32-.65-.65-.97-.97-.81-.81-1.35-1.3-3.13-1.3h-8.52Z"/>
          <path d="M1060.18,328.01c0,1.13-.97,2.11-2.16,2.11h-3.78c-.11,2.75-1.02,5.93-3.02,7.93-2.37,2.37-4.15,3.02-7.44,3.02h-6.37c-3.83,0-5.39-1.08-7.34-3.02-2.64-2.64-3.07-4.42-3.07-7.34v-18.55c0-3.02.92-5.23,3.02-7.34,2.37-2.37,4.15-3.08,7.44-3.08h6.42c3.83,0,5.39,1.13,7.34,3.08,2.59,2.59,3.02,4.37,3.02,7.34v13.7h3.78c1.19,0,2.16.97,2.16,2.15ZM1049.98,330.12h-9.06c-1.19,0-2.16-.97-2.16-2.11s.97-2.15,2.16-2.15h9.06v-14.4c0-1.08-.22-1.78-1.35-3.12-.27-.38-.65-.65-.97-.97-.76-.75-1.35-1.29-3.13-1.29-2.16,0-4.85-.05-7.87,0-1.46.05-2,.21-3.13,1.29-.32.27-.7.6-.97.97-1.08,1.29-1.3,1.83-1.3,3.12v19.91c0,1.08.22,1.83,1.35,3.18.27.32.65.65.97.97.75.75,1.35,1.24,3.13,1.24,2.21,0,4.85.05,7.87,0,1.46,0,2-.16,3.13-1.24.32-.32.7-.65.97-.97,1.13-1.3,1.3-1.89,1.3-3.13v-1.3Z"/>
          <path d="M1074.89,312.43v18.82c0,1.73.38,2.21,1.3,3.13.32.32.65.65.97.97,1.13,1.08,1.89,1.3,3.13,1.3,1.08,0,2.21.05,3.29,0,1.51-.05,2.32-.49,3.13-1.3.32-.32.65-.65.97-.97.92-.97,1.29-1.51,1.29-3.13v-18.82c0-1.18.97-2.1,2.16-2.1s2.1.92,2.1,2.1v18.12c0,3.45-.75,5.07-3.02,7.34-2.43,2.43-3.67,3.02-7.17,3.02h-2.05c-2.97,0-4.75-.43-7.34-3.02-2.48-2.48-3.02-3.4-3.02-7.34v-18.12c0-1.18.97-2.1,2.16-2.1s2.1.92,2.1,2.1Z"/>
          <path d="M1125.09,320.3v-4.75h-15.86c-1.13,0-2.11-.97-2.11-2.15s.97-2.16,2.11-2.16h15.53c2.53,0,4.58,2.1,4.58,4.58v20.44c0,2.54-2.05,4.58-4.58,4.58h-8.47c-2.86,0-5.07-.65-7.5-3.07-2.21-2.21-2.97-3.56-2.97-7.18s.75-5.02,2.97-7.18c2.48-2.48,4.21-3.12,7.5-3.12h8.79ZM1112.36,335.3c.92.92,1.89,1.3,3.13,1.3h9.6v-11.97h-9.6c-1.13,0-2.21.38-3.13,1.3-.32.27-.65.65-.97.97-.92.92-1.3,1.62-1.3,3.13v1.18c0,1.35.22,2.05,1.3,3.13.32.32.65.65.97.97Z"/>
          <path d="M1145.53,315.56v23.95c0,1.19-.97,2.16-2.16,2.16s-2.11-.97-2.11-2.16v-23.62c0-2.75,2.11-4.58,4.58-4.58h7.5c4.1,0,5.07.76,7.34,3.02,2.05,2.05,3.02,3.5,3.02,7.34v17.85c0,1.19-.92,2.11-2.1,2.11s-2.16-.92-2.16-2.11v-18.55c0-1.19-.11-1.94-1.29-3.13-.32-.32-.65-.65-.97-.97-.81-.81-1.35-1.3-3.13-1.3h-8.52Z"/>
          <path d="M1185.48,311.35h5.18c1.13,0,2.11.97,2.11,2.11s-.97,2.15-2.11,2.15h-5.18v21.04h4.75c1.19,0,2.1.92,2.1,2.11s-.92,2.15-2.1,2.15h-4.42c-2.53,0-4.58-2.1-4.58-4.64v-20.66h-3.02c-1.19,0-2.16-.97-2.16-2.15s.97-2.11,2.16-2.11h3.02v-4.64c0-1.19.92-2.16,2.11-2.16s2.16.97,2.16,2.16v4.64Z"/>
          <path d="M1208.72,312.43v18.82c0,1.73.38,2.21,1.3,3.13.32.32.65.65.97.97,1.13,1.08,1.89,1.3,3.13,1.3,1.08,0,2.21.05,3.29,0,1.51-.05,2.32-.49,3.13-1.3.32-.32.65-.65.97-.97.92-.97,1.29-1.51,1.29-3.13v-18.82c0-1.18.97-2.1,2.16-2.1s2.1.92,2.1,2.1v18.12c0,3.45-.75,5.07-3.02,7.34-2.43,2.43-3.67,3.02-7.17,3.02h-2.05c-2.97,0-4.75-.43-7.34-3.02-2.48-2.48-3.02-3.4-3.02-7.34v-18.12c0-1.18.97-2.1,2.16-2.1s2.1.92,2.1,2.1Z"/>
          <path d="M1260.86,315.56v24.11c0,1.18-.92,2.1-2.1,2.1s-2.16-.92-2.16-2.1v-18.01c0-1.35-.43-2.27-1.29-3.08-.49-.54-1.08-1.13-1.62-1.67-.81-.75-1.73-1.35-3.13-1.35h-5.29v24.11c0,1.18-.97,2.1-2.16,2.1s-2.1-.97-2.1-2.1v-23.73c0-2.53,2.05-4.69,4.58-4.69h5.12c2.21,0,4.32.97,5.88,2.53,0-1.46,1.19-2.48,2.64-2.48l6.74-.05c3.83,0,4.96.76,7.34,3.08,2.86,2.8,3.02,4.15,3.02,7.34v18.01c0,1.18-.97,2.1-2.16,2.1s-2.16-.92-2.16-2.1v-18.72c0-1.56-.27-1.99-1.29-3.13-.27-.32-.65-.65-.97-.97-.81-.81-1.67-1.3-3.13-1.3h-5.77Z"/>
          <path d="M1324.87,306.01v33.92c0,1.13-.97,2.11-2.1,2.11s-2.16-.97-2.16-2.11v-33.92h-10.25c-1.19,0-2.16-.97-2.16-2.16s.97-2.11,2.16-2.11h24.81c1.19,0,2.16.92,2.16,2.11s-.97,2.16-2.16,2.16h-10.3Z"/>
          <path d="M1354.85,311.3c3.29,0,4.96.65,7.33,3.02,2.37,2.37,3.08,4.04,3.08,7.34v8.95c0,3.99-.92,5.18-3.08,7.34-2.37,2.37-4.31,3.02-7.33,3.02h-3.29c-2.91,0-4.85-.54-7.28-3.02-2.21-2.21-3.08-3.56-3.08-7.34v-8.95c0-3.99.65-4.91,3.08-7.34,2.26-2.27,4.21-3.02,7.28-3.02h3.29ZM1360.94,320.95c0-1.51-.43-2.11-1.3-3.13-.27-.32-.65-.65-.97-.97-1.08-1.08-1.51-1.24-3.13-1.3h-4.64c-1.51,0-1.99.27-3.13,1.3-.38.32-.65.65-.97.97-1.03,1.02-1.3,1.73-1.3,3.13v10.36c0,1.24.05,1.89,1.3,3.12.32.27.65.65.97.97.92.92,2.1,1.3,3.13,1.3h4.64c1.67,0,1.99-.16,3.13-1.3.32-.32.65-.7.97-.97,1.03-1.02,1.3-1.83,1.3-3.12v-10.36Z"/>
          <path d="M1389.14,311.3c3.29,0,4.96.65,7.33,3.02,2.37,2.37,3.08,4.04,3.08,7.34v8.95c0,3.99-.92,5.18-3.08,7.34-2.37,2.37-4.31,3.02-7.33,3.02h-3.29c-2.91,0-4.85-.54-7.28-3.02-2.21-2.21-3.08-3.56-3.08-7.34v-8.95c0-3.99.65-4.91,3.08-7.34,2.26-2.27,4.21-3.02,7.28-3.02h3.29ZM1395.23,320.95c0-1.51-.43-2.11-1.3-3.13-.27-.32-.65-.65-.97-.97-1.08-1.08-1.51-1.24-3.13-1.3h-4.64c-1.51,0-1.99.27-3.13,1.3-.38.32-.65.65-.97.97-1.03,1.02-1.3,1.73-1.3,3.13v10.36c0,1.24.05,1.89,1.3,3.12.32.27.65.65.97.97.92.92,2.1,1.3,3.13,1.3h4.64c1.67,0,1.99-.16,3.13-1.3.32-.32.65-.7.97-.97,1.03-1.02,1.3-1.83,1.3-3.12v-10.36Z"/>
          <path d="M1413.62,302.99c0-1.19.97-2.16,2.16-2.16s2.16.97,2.16,2.16v36.62c0,1.18-.97,2.1-2.16,2.1s-2.16-.92-2.16-2.1v-36.62Z"/>
          <path d="M1450.66,311.3c2.53,0,4.58,2.05,4.58,4.58v4.1c0,1.18-.92,2.16-2.1,2.16s-2.16-.97-2.16-2.16v-4.42h-8.84c-1.13,0-2,.16-3.13,1.3-.32.32-.65.65-.97.97-.86.81-1.3,1.94-1.3,3.13v10.25c0,1.51.43,2.27,1.3,3.13.32.32.59.65.97.97,1.03.92,1.62,1.3,3.13,1.3,2.59-.05,6.63,0,8.84,0v-5.39c0-1.18.97-2.15,2.16-2.15s2.1.97,2.1,2.15v5.12c0,2.54-2.05,4.53-4.58,4.53h-7.87c-3.02,0-4.85-.59-7.34-3.02-2.05-2.05-3.02-3.29-3.02-7.34v-8.84c0-3.73,1.19-5.5,3.02-7.34,2.53-2.54,4.42-3.02,7.34-3.02h7.87Z"/>
          <path d="M1479.51,311.3c3.45,0,4.85.54,7.34,3.02,2.37,2.37,3.02,4.21,3.02,7.28v17.96c0,1.19-.97,2.16-2.16,2.16s-2.1-.97-2.1-2.16c0-4.26.11-14.35,0-18.61-.05-1.35-.43-2.16-1.29-3.13-.32-.32-.65-.65-.97-.97-.86-.86-1.67-1.3-3.13-1.3h-8.36v24c0,1.19-.97,2.16-2.16,2.16s-2.16-.97-2.16-2.16v-36.51c0-1.18.97-2.16,2.16-2.16s2.16.97,2.16,2.16v8.25h7.66Z"/>
          <path d="M1520,320.3v-4.75h-15.86c-1.13,0-2.11-.97-2.11-2.15s.97-2.16,2.11-2.16h15.53c2.53,0,4.58,2.1,4.58,4.58v20.44c0,2.54-2.05,4.58-4.58,4.58h-8.47c-2.86,0-5.07-.65-7.5-3.07-2.21-2.21-2.97-3.56-2.97-7.18s.75-5.02,2.97-7.18c2.48-2.48,4.21-3.12,7.5-3.12h8.79ZM1507.27,335.3c.92.92,1.89,1.3,3.13,1.3h9.6v-11.97h-9.6c-1.13,0-2.21.38-3.13,1.3-.32.27-.65.65-.97.97-.92.92-1.3,1.62-1.3,3.13v1.18c0,1.35.22,2.05,1.3,3.13.32.32.65.65.97.97Z"/>
          <path d="M1541.52,304.61c0,1.19-.97,2.16-2.16,2.16s-2.16-.97-2.16-2.16v-4.58c0-1.19.97-2.16,2.16-2.16s2.16.97,2.16,2.16v4.58ZM1537.2,312.92c0-1.19.97-2.16,2.16-2.16s2.16.97,2.16,2.16v26.64c0,1.19-.97,2.16-2.16,2.16s-2.16-.97-2.16-2.16v-26.64Z"/>
          <path d="M1560.28,315.56v23.95c0,1.19-.97,2.16-2.16,2.16s-2.11-.97-2.11-2.16v-23.62c0-2.75,2.11-4.58,4.58-4.58h7.5c4.1,0,5.07.76,7.34,3.02,2.05,2.05,3.02,3.5,3.02,7.34v17.85c0,1.19-.92,2.11-2.1,2.11s-2.16-.92-2.16-2.11v-18.55c0-1.19-.11-1.94-1.29-3.13-.32-.32-.65-.65-.97-.97-.81-.81-1.35-1.3-3.13-1.3h-8.52Z"/>
        </g>
        <g>
          <path d="M906.94,376.37h5.56c1.19,0,2.16.92,2.16,2.1s-.97,2.16-2.16,2.16h-5.56v24.16c0,1.19-.97,2.16-2.16,2.16s-2.1-.97-2.1-2.16v-24.16h-4.21c-1.19,0-2.16-.97-2.16-2.16s.97-2.1,2.16-2.1h4.21v-5.23c0-2.53,2.05-4.58,4.58-4.58l4.69-.05c1.19,0,2.16.97,2.16,2.16s-.97,2.1-2.16,2.1h-5.02v5.61Z"/>
          <path d="M937.95,376.32c3.29,0,4.96.65,7.33,3.02,2.37,2.37,3.08,4.05,3.08,7.34v8.95c0,3.99-.92,5.18-3.08,7.34-2.37,2.38-4.31,3.02-7.33,3.02h-3.29c-2.91,0-4.85-.54-7.28-3.02-2.21-2.21-3.08-3.56-3.08-7.34v-8.95c0-3.99.65-4.91,3.08-7.34,2.26-2.27,4.21-3.02,7.28-3.02h3.29ZM944.04,385.97c0-1.51-.43-2.11-1.3-3.13-.27-.32-.65-.65-.97-.97-1.08-1.08-1.51-1.24-3.13-1.3h-4.64c-1.51,0-1.99.27-3.13,1.3-.38.32-.65.65-.97.97-1.03,1.02-1.3,1.72-1.3,3.13v10.35c0,1.24.05,1.89,1.3,3.13.32.27.65.65.97.97.92.92,2.1,1.3,3.13,1.3h4.64c1.67,0,1.99-.16,3.13-1.3.32-.32.65-.7.97-.97,1.03-1.02,1.3-1.83,1.3-3.13v-10.35Z"/>
          <path d="M965.28,388.45v16.23c0,1.13-.97,2.11-2.16,2.11s-2.1-.97-2.1-2.11v-26.91c0-1.19.92-2.11,2.1-2.11s2.16.92,2.16,2.11v4.64l3.77-3.77c2.37-2.38,2.59-2.54,6.2-2.54,1.19,0,2.16.97,2.16,2.16s-.97,2.15-2.16,2.15h-1.94l-8.04,8.04Z"/>
          <path d="M1032.85,395.74c0,3.02-.92,5.18-3.02,7.34-2.37,2.37-4.15,3.02-7.44,3.02h-6.42c-3.83,0-5.34-1.08-7.34-3.02-2.59-2.64-3.02-4.42-3.02-7.34v-18.56c0-3.02.92-5.23,3.02-7.34,2.37-2.37,4.15-3.07,7.44-3.07h6.42c3.83,0,5.34,1.13,7.28,3.07,2.64,2.59,3.08,4.37,3.08,7.34v18.56ZM1009.88,396.38c0,1.08.22,1.83,1.35,3.18.27.32.65.65.97.97.75.76,1.35,1.24,3.13,1.24,2.16,0,4.85.05,7.88,0,1.46,0,1.99-.16,3.13-1.24.32-.32.7-.65.97-.97,1.13-1.3,1.3-1.89,1.3-3.13l-.05-19.95c0-1.08-.16-1.78-1.3-3.13-.27-.38-.65-.65-.97-.97-.75-.76-1.35-1.3-3.13-1.3-2.21,0-4.85-.05-7.87,0-1.46.05-2,.22-3.13,1.3-.32.27-.7.59-.97.97-1.13,1.3-1.29,1.83-1.29,3.13v19.9Z"/>
          <path d="M1050.05,389.86v15.21c0,1.13-.92,2.11-2.1,2.11s-2.16-.97-2.16-2.11v-33.71c0-2.54,2.05-4.58,4.58-4.58h11.22c4.04,0,5.39,1.13,7.28,3.07,2.53,2.48,3.08,4.15,3.08,7.28v2.32c0,3.94-.75,5.18-3.08,7.34-2.16,2.11-3.67,3.08-7.28,3.08h-11.54ZM1065.37,372.38c-.92-.97-1.72-1.3-3.13-1.3h-12.19v14.46h12.19c1.4,0,2.26-.43,3.13-1.3.32-.32.7-.65.97-.97.97-.97,1.3-1.94,1.3-3.13v-3.67c0-1.19-.43-2.32-1.3-3.13-.32-.32-.65-.65-.97-.97Z"/>
          <path d="M1101.17,376.26c2.53,0,4.58,2.05,4.58,4.58l-.05,7.61c0,2.53-2.05,4.58-4.58,4.58h-14.46v3.18c0,1.46.22,1.99,1.3,3.13.32.32.65.65.97.97,1.08,1.02,1.89,1.29,3.13,1.29h9.39v-2.53c0-1.19.97-2.16,2.16-2.16s2.16.97,2.16,2.16l-.05,2.21c0,2.53-2.05,4.58-4.58,4.58h-8.36c-3.67,0-4.8-.49-7.34-3.02-2.05-2.05-3.02-2.96-3.02-7.34v-8.9c0-3.67.59-4.91,3.02-7.34,2.1-2.11,3.45-3.02,7.34-3.02h8.41ZM1086.66,388.78h14.78v-8.25h-9.39c-1.24,0-1.89.21-3.13,1.29-.32.32-.65.7-.97.97-1.02,1.02-1.3,1.62-1.3,3.12v2.86Z"/>
          <path d="M1124.4,388.45v16.23c0,1.13-.97,2.11-2.16,2.11s-2.1-.97-2.1-2.11v-26.91c0-1.19.92-2.11,2.1-2.11s2.16.92,2.16,2.11v4.64l3.77-3.77c2.37-2.38,2.59-2.54,6.2-2.54,1.19,0,2.16.97,2.16,2.16s-.97,2.15-2.16,2.15h-1.94l-8.04,8.04Z"/>
          <path d="M1166.57,385.32v-4.75h-15.86c-1.13,0-2.11-.97-2.11-2.16s.97-2.16,2.11-2.16h15.53c2.53,0,4.58,2.11,4.58,4.58v20.44c0,2.53-2.05,4.58-4.58,4.58h-8.47c-2.86,0-5.07-.65-7.5-3.08-2.21-2.21-2.97-3.56-2.97-7.18s.75-5.01,2.97-7.17c2.48-2.48,4.21-3.13,7.5-3.13h8.79ZM1153.85,400.32c.92.92,1.89,1.29,3.13,1.29h9.6v-11.97h-9.6c-1.13,0-2.21.38-3.13,1.3-.32.27-.65.65-.97.97-.92.92-1.3,1.62-1.3,3.13v1.19c0,1.35.22,2.05,1.3,3.13.32.32.65.65.97.97Z"/>
          <path d="M1191.86,376.37h5.18c1.13,0,2.11.97,2.11,2.1,0,1.19-.97,2.16-2.11,2.16h-5.18v21.04h4.75c1.19,0,2.1.92,2.1,2.1s-.92,2.16-2.1,2.16h-4.42c-2.53,0-4.58-2.11-4.58-4.64v-20.66h-3.02c-1.19,0-2.16-.97-2.16-2.16s.97-2.1,2.16-2.1h3.02v-4.64c0-1.19.92-2.16,2.11-2.16s2.16.97,2.16,2.16v4.64Z"/>
          <path d="M1223.3,376.32c3.29,0,4.96.65,7.33,3.02,2.37,2.37,3.08,4.05,3.08,7.34v8.95c0,3.99-.92,5.18-3.08,7.34-2.37,2.38-4.31,3.02-7.33,3.02h-3.29c-2.91,0-4.85-.54-7.28-3.02-2.21-2.21-3.08-3.56-3.08-7.34v-8.95c0-3.99.65-4.91,3.08-7.34,2.26-2.27,4.21-3.02,7.28-3.02h3.29ZM1229.39,385.97c0-1.51-.43-2.11-1.3-3.13-.27-.32-.65-.65-.97-.97-1.08-1.08-1.51-1.24-3.13-1.3h-4.64c-1.51,0-1.99.27-3.13,1.3-.38.32-.65.65-.97.97-1.03,1.02-1.3,1.72-1.3,3.13v10.35c0,1.24.05,1.89,1.3,3.13.32.27.65.65.97.97.92.92,2.1,1.3,3.13,1.3h4.64c1.67,0,1.99-.16,3.13-1.3.32-.32.65-.7.97-.97,1.03-1.02,1.3-1.83,1.3-3.13v-10.35Z"/>
          <path d="M1250.63,388.45v16.23c0,1.13-.97,2.11-2.16,2.11s-2.1-.97-2.1-2.11v-26.91c0-1.19.92-2.11,2.1-2.11s2.16.92,2.16,2.11v4.64l3.77-3.77c2.37-2.38,2.59-2.54,6.2-2.54,1.19,0,2.16.97,2.16,2.16s-.97,2.15-2.16,2.15h-1.94l-8.04,8.04Z"/>
          <path d="M1292.32,399.4c0,1.72-.7,3.4-1.94,4.64-1.24,1.24-2.91,1.89-4.64,1.89h-6.74c-2.21,0-3.13-.38-4.69-1.89-1.29-1.35-1.89-2.27-1.89-4.64v-2.7c0-1.19.92-2.11,2.1-2.11s2.16.92,2.16,2.11v2.7c0,.75,0,.92.7,1.62.38.43.97.65,1.62.65h6.74c.7,0,1.03-.06,1.62-.65.59-.59.65-1.02.65-1.62v-2.21c0-1.46-.32-1.94-1.72-2.37l-9.28-2.97c-2.53-.75-4.42-3.02-4.42-5.93v-3.02c-.05-2.43.65-3.4,1.89-4.64,1.35-1.35,2.37-1.94,4.64-1.94h6.74c2.53,0,3.29.54,4.69,1.94s1.89,2.43,1.89,4.64v2.37c0,1.19-.92,2.11-2.1,2.11s-2.16-.92-2.16-2.11v-2.37c.05-.81-.27-1.19-.7-1.62-.38-.49-.86-.7-1.78-.7h-6.53c-.7,0-1.03.05-1.67.7-.49.49-.65.81-.65,1.62v2.53c0,1.46.49,2,1.72,2.37l9.33,3.02c2.64.76,4.42,3.18,4.42,5.88v2.7Z"/>
          <path d="M1355.84,399.19c-.65.97-2,1.24-2.97.6l-4.48-2.64c.06,1.83.11,2.75-1.56,4.69l-.92.92c-2.43,2.43-4.26,3.24-7.88,3.24h-4.37c-3.18,0-4.85-.59-7.34-3.02-2.91-2.96-3.02-4.15-3.02-7.34v-.54c0-4.1,1.67-5.56,3.99-6.9l4.04-2.32-3.02-1.94c-2.97-1.94-3.83-3.02-3.83-7.12v-.81c0-2.64.38-4.37,2.75-6.74,1.83-1.83,3.56-2.64,6.96-2.64h3.61c3.51,0,5.07.97,6.9,2.81,2.48,2.48,2.7,4.1,2.7,6.58l-.05.92c0,2.75-.27,4.69-3.99,6.85-1.24.7-2.59,1.51-4.05,2.32l5.12,3.29,1.89,1.18,3.29-3.02c1.19-1.13,2.64-1.35,3.51-.54,1.08.92.7,2.43-.27,3.34l-2.97,2.54,5.29,3.34c.97.65,1.24,1.94.65,2.96ZM1344.46,394.44l-9.06-6.09c-2.43,1.4-4.69,2.86-6.2,3.72-1.13.65-1.56,1.3-1.56,2.75v1.51c0,1.13.43,2.27,1.3,3.13.27.27.65.65.97.97.81.81,1.94,1.4,3.13,1.4h5.99c1.19,0,2.16-.54,3.07-1.3.54-.43.81-.75,1.13-1.08,1.29-1.51,1.24-2.11,1.24-3.13v-1.89ZM1335.51,383.6l6.04-3.61c.75-.43,1.56-1.29,1.56-2.86v-1.46c0-1.3.06-1.78-1.08-3.29-.11-.11-.32-.38-.49-.54-.7-.76-1.89-1.13-3.4-1.13h-4.53c-.86,0-2.37.22-3.45,1.3-.11.11-.27.27-.38.38-.65.65-1.08,1.94-1.02,3.29v1.62c0,1.51.49,2.15,1.56,2.8l5.18,3.5Z"/>
          <path d="M1411.75,395.68c0,3.72-.7,5.01-3.07,7.34-2,2.05-3.61,3.02-7.28,3.02h-6.2c-2.64,0-4.85-.59-7.33-3.02-2.37-2.38-3.02-3.13-3.02-7.34v-27.89c0-1.19.97-2.16,2.16-2.16s2.1.97,2.1,2.16v28.59c0,1.67.32,2.11,1.3,3.13.32.32.7.65.97.97.97.92,1.83,1.24,3.18,1.3,2.8.11,5.01.11,7.5-.05,1.56-.11,2.1-.32,3.08-1.24.32-.32.75-.65,1.02-.97,1.13-1.35,1.3-1.94,1.3-3.13v-28.59c0-1.19.97-2.16,2.16-2.16s2.16.97,2.16,2.16v27.89Z"/>
          <path d="M1449.55,395.68c0,3.77-.75,4.8-3.02,7.34-2.59,2.86-4.05,3.02-7.34,3.02h-4.48c-3.51-.05-4.85-.59-7.33-3.02-2.05-2.05-3.02-2.97-3.02-7.34v-3.67c0-1.19.92-2.16,2.11-2.16s2.16.97,2.16,2.16v4.31c0,1.78.43,2.32,1.3,3.13.32.32.65.7.97.97.81.86,1.94,1.35,3.13,1.35,2,0,3.88.05,5.88,0,1.51-.05,2-.43,3.13-1.35.32-.27.7-.59.97-.97,1.19-1.4,1.24-1.78,1.29-3.13.06-1.02,0-2.75,0-4.05,0-1.08-.7-2.05-1.72-2.37l-14.51-3.51c-2.64-.81-4.37-3.24-4.37-5.93v-3.45c0-3.45.38-4.69,3.02-7.28,2.48-2.53,3.77-2.96,7.34-2.96h4.1c3.88,0,5.07.75,7.28,3.02,2.1,2.11,3.13,3.51,3.08,7.34v2.7c0,1.19-.97,2.16-2.16,2.16s-2.16-.97-2.16-2.16c0-.7.05-2.7,0-3.4,0-1.57-.43-2.32-1.3-3.13-.32-.32-.65-.65-.97-.97-.97-.97-1.72-1.3-3.13-1.3h-5.45c-1.56,0-1.89.05-3.13,1.3-.32.32-.65.65-.97.97-.81.81-1.24,1.4-1.3,3.13-.05.75,0,2.64,0,3.56,0,1.51.65,2.05,1.73,2.43l14.51,3.61c2.64.81,4.37,3.24,4.37,5.93v3.72Z"/>
          <path d="M1480.56,376.26c2.53,0,4.58,2.05,4.58,4.58l-.05,7.61c0,2.53-2.05,4.58-4.58,4.58h-14.46v3.18c0,1.46.22,1.99,1.3,3.13.32.32.65.65.97.97,1.08,1.02,1.89,1.29,3.13,1.29h9.39v-2.53c0-1.19.97-2.16,2.16-2.16s2.16.97,2.16,2.16l-.05,2.21c0,2.53-2.05,4.58-4.58,4.58h-8.36c-3.67,0-4.8-.49-7.34-3.02-2.05-2.05-3.02-2.96-3.02-7.34v-8.9c0-3.67.59-4.91,3.02-7.34,2.1-2.11,3.45-3.02,7.34-3.02h8.41ZM1466.05,388.78h14.78v-8.25h-9.39c-1.24,0-1.89.21-3.13,1.29-.32.32-.65.7-.97.97-1.02,1.02-1.3,1.62-1.3,3.12v2.86Z"/>
          <path d="M1503.79,388.45v16.23c0,1.13-.97,2.11-2.16,2.11s-2.1-.97-2.1-2.11v-26.91c0-1.19.92-2.11,2.1-2.11s2.16.92,2.16,2.11v4.64l3.77-3.77c2.37-2.38,2.59-2.54,6.2-2.54,1.19,0,2.16.97,2.16,2.16s-.97,2.15-2.16,2.15h-1.94l-8.04,8.04Z"/>
          <path d="M1545.48,399.4c0,1.72-.7,3.4-1.94,4.64-1.24,1.24-2.91,1.89-4.64,1.89h-6.74c-2.21,0-3.13-.38-4.69-1.89-1.29-1.35-1.89-2.27-1.89-4.64v-2.7c0-1.19.92-2.11,2.1-2.11s2.16.92,2.16,2.11v2.7c0,.75,0,.92.7,1.62.38.43.97.65,1.62.65h6.74c.7,0,1.03-.06,1.62-.65.59-.59.65-1.02.65-1.62v-2.21c0-1.46-.32-1.94-1.72-2.37l-9.28-2.97c-2.53-.75-4.42-3.02-4.42-5.93v-3.02c-.05-2.43.65-3.4,1.89-4.64,1.35-1.35,2.37-1.94,4.64-1.94h6.74c2.53,0,3.29.54,4.69,1.94s1.89,2.43,1.89,4.64v2.37c0,1.19-.92,2.11-2.1,2.11s-2.16-.92-2.16-2.11v-2.37c.05-.81-.27-1.19-.7-1.62-.38-.49-.86-.7-1.78-.7h-6.53c-.7,0-1.03.05-1.67.7-.49.49-.65.81-.65,1.62v2.53c0,1.46.49,2,1.72,2.37l9.33,3.02c2.64.76,4.42,3.18,4.42,5.88v2.7Z"/>
        </g>
      </g>
      <rect x="968.03" y="204.69" width="76.24" height="29.76" transform="translate(1562.34 1086.28) rotate(-135)"/>
    </g>
    <g>
      <path class="cls-1" d="M385.8,229.86c-3.03-21.44-29.94-13.19-52.83,1.34-.01.01-.03.01-.04.03.08.03.15.04.23.07h.01s.53.15.53.15c0,0,.01,0,.03.01l.7.22c14.07,4.38,24.8,6.22,33.01,6.26,8.83.08,14.72-1.91,18.69-5,0-.55,0-1.09-.03-1.65-.12-.42-.23-.89-.3-1.42Z"/>
      <path class="cls-1" d="M316.69,219.55c.3.01.59.03.89.04,21.41-.82,36.68-7.42,46.72-15.37.09-.08.2-.18.32-.27.11-.09.23-.2.36-.3.28-.22.55-.43.82-.66.08-.07.18-.15.26-.23.64-.57,1.26-1.14,1.85-1.72-8.12.85-17.29,3.27-26.14,6.54-9.16,3.39-18.19,7.46-25.1,11.96Z"/>
      <path class="cls-1" d="M456.34,331.5c.11-.19.23-.38.34-.55,5.93-9.72,8.97-17.25,10.12-23.09.05-.26.09-.53.14-.77-7.8,6.95-10.47,15.79-10.6,24.41Z"/>
      <path class="cls-1" d="M566.83,192.18c2.55,0,4.64-7.38,4.64-16.52s-2.08-16.5-4.64-16.5-4.64,7.39-4.64,16.5,2.08,16.52,4.64,16.52Z"/>
      <path class="cls-1" d="M369.45,252.2c-.26.18-.51.35-.76.53-.08.05-.16.11-.24.18-.5.35-1,.72-1.5,1.08-.03.03-.05.05-.09.08-.51.39-1.03.8-1.53,1.22,9.8-2.18,15.18-6.24,17.99-11-4.57,1.93-9.41,4.8-13.95,7.96l.08-.04Z"/>
      <path class="cls-1" d="M547.52,176.32c3.15,0,5.72-9.12,5.72-20.4s-2.57-20.4-5.72-20.4-5.72,9.12-5.72,20.4,2.55,20.4,5.72,20.4Z"/>
      <path class="cls-1" d="M394.02,306.22c-5.24,6.03-9.15,12.52-12.07,19.02,11.03-7.49,17.26-16.57,20.37-26.01.07-.2.14-.42.19-.62-3.11,2.31-5.93,4.88-8.49,7.61Z"/>
      <path class="cls-5" d="M402.96,253.89s-.01-.08,0-.14c-.04-.22-.05-.46-.04-.73h0c0-.26-.01-.54-.03-.78,0-.5-.04-1.03-.09-1.49-.01-.24-.05-.47-.05-.72-1.34-9.91-9.75-9.91-19.44-5.76-2.81,4.76-8.19,8.83-17.99,11-8.45,6.99-15.64,16.83-16.64,18.19-.07.11-.11.16-.11.16-7.79,11.06-22.18,15.58-34.78,9.72-5-2.33-8.97-5.95-11.73-10.27-.64,1.49-1.16,3.05-1.53,4.68-3.43,15.03,5.95,29.96,20.98,33.4,13.54,3.1,26.67-4.37,31.95-16.8,0,0,.03-.07.08-.19.72-1.64,6.26-14.03,13.68-22.79.03-.04.05-.07.08-.1.41-.47.81-.93,1.23-1.38.07-.08.14-.15.2-.22.2-.23.42-.46.64-.68l-.07.05c11.79-12.66,27.18-23,32.17-9.16.05.23.13.45.2.69.15.43.3.95.41,1.43.07.23.14.5.19.74h0c.05.28.11.51.2.72-.01.05.03.09.03.13.05.23.12.47.18.7.26-2.8.35-5.57.32-8.24,0-.74-.01-1.46-.04-2.19Z"/>
      <path class="cls-5" d="M466.94,307.09c-.04.24-.08.51-.14.77-1.15,5.84-4.19,13.37-10.12,23.09-.11.18-.23.36-.34.55-.18,11.19,3.97,22.02,6.93,27.95,6.89,13.8,1.27,30.55-12.48,37.43-.09.05-.2.09-.3.13.13.07.27.14.41.19,9.15,3.93,20.08,2.81,28.4-3.84,12-9.61,13.98-27.17,4.34-39.21-7.47-9.34-22.1-33.49-6.6-53.05.2-.26.41-.5.61-.76-3.82,1.69-7.03,3.68-9.68,5.85-.35.3-.7.59-1.04.89Z"/>
      <path class="cls-5" d="M378.49,187.59c.12-.07.26-.15.42-.22.31-.15.62-.3.93-.47.09-.04.2-.11.31-.16,10.54-5.88,16.65-15.25,19.92-24,.01-.03.01-.05.01-.05,14.03-36.82,49.62-63.03,91.37-63.11,13.81-.01,26.96,2.83,38.89,7.97-21.06-13.6-47.31-19.11-73.74-13.39-40.8,8.85-70.09,41.95-76.07,80.89,0,0,0,.03-.01.05-.64,4.32-1.85,8.92-3.91,13.39.51-.23,1.01-.46,1.5-.7.11-.07.23-.14.38-.2Z"/>
      <path class="cls-5" d="M300.31,246.29c.77-1.65,1.69-3.19,2.72-4.62,6.49-8.88,17.65-13.12,28.36-10.83.51.12,1.03.23,1.54.38.01-.01.03-.01.04-.03,22.9-14.53,49.81-22.77,52.83-1.34.07.53.18,1,.3,1.42.03.55.03,1.09.03,1.65.97-.76,1.82-1.57,2.58-2.45,2.38-2.8,3.76-6.11,4.57-9.5.16-.72.32-1.43.45-2.15-.03-.45-.04-.93.01-1.46,1-14.07-10.57-17.95-25.8-16.33-.59.58-1.22,1.15-1.85,1.72-.08.08-.18.16-.26.23-.27.23-.54.45-.82.66-.14.1-.26.2-.36.3-.12.09-.23.19-.32.27-10.04,7.95-25.32,14.54-46.72,15.37-.3-.01-.59-.03-.89-.04-1.05.69-2.05,1.39-3,2.09-5.51,4.11-12.2,11.41-12.2,11.41-10.11,9.22-25.52,10.95-37.67,3.28-5.16-3.27-9.04-7.8-11.5-12.93-3.51,3.24-6.34,7.35-8.11,12.18-5.95,16.21,2.37,34.17,18.57,40.12,13.29,4.87,27.78.15,35.79-10.66-1.55-6.04-1.09-12.64,1.74-18.73Z"/>
      <path class="cls-5" d="M442.97,287.27c-.77-.05-1.55-.09-2.31-.12-15.77-.59-28.36,4.16-38.16,11.46-.05.2-.12.42-.19.62-3.11,9.43-9.34,18.52-20.37,26.01-4.97,11.02-7.16,22.1-8.37,31.14-.03.15-.04.28-.07.43v.03c-2.65,17.02-17.35,30.06-35.13,30.1-4.2,0-8.23-.72-11.98-2.07,6.06,16.35,23.36,26.18,40.91,22.4,17.37-3.77,29.01-19.61,28.02-36.8v-.04c-.01-.14-.03-.28-.04-.42-1.14-14.48-.95-34.49,9.45-53.35,8.01-13.31,21.13-24.84,41.59-28.44.11-.01.2-.04.31-.05-1.76-.55-3.15-.8-3.65-.88h-.03Z"/>
      <path class="cls-2" d="M327.68,256.13c.61,0,1.22.01,1.82.05h0s.55.04.55.04h.03l.73.07c14.68,1.32,25.56.87,33.59-.81.31-.07.61-.14.92-.2.5-.42,1.01-.82,1.53-1.22.04-.03.07-.05.09-.08.5-.36,1-.73,1.5-1.08.08-.07.16-.12.24-.18.24-.18.5-.35.76-.53l-.08.04c4.54-3.16,9.38-6.03,13.95-7.96.12-.19.22-.36.32-.55,1.74-3.23,2.39-6.76,2.47-10.25,0-.19,0-.36.01-.55-3.97,3.1-9.87,5.08-18.69,5-8.2-.04-18.94-1.88-33.01-6.26l-.7-.22s-.03-.01-.03-.01l-.53-.16h-.01c-.08-.01-.15-.03-.23-.05-9.49,6.03-18.6,12.91-24.48,19.63-4.53,5.18-9.54,13.72-9.54,13.72-.11.16-.23.31-.34.46.73,2.85,1.92,5.57,3.5,8.06.04-.15.11-.28.16-.42,4.47-10.04,14.5-16.53,25.45-16.53Z"/>
      <path class="cls-2" d="M440.12,389.01c-8.66-10.84-7.93-26.15,1.08-36.1v-.03c6.37-8.08,11.33-15.19,15.14-21.38.12-8.62,2.8-17.46,10.6-24.41,3.42-19.94-16.1-19.35-18.27-19.23h-.03c-.66.09-1.34.2-1.99.31,6.01,1.91,16.31,7.47,9.88,22.49-2.34,5.46-6.89,12.18-14.75,20.44-5.1,5.38-11.57,11.43-19.72,18.21h-.03c-10.89,7.85-14.83,22.67-8.64,35.09,2.15,4.24,5.2,7.72,8.83,10.27,8.04,5.72,18.81,6.95,28.28,2.35-3.92-1.73-7.49-4.42-10.38-8Z"/>
      <path class="cls-2" d="M561.17,128.6c-8.77-8.87-19.22-16.04-30.83-21.04.18.11.34.22.51.32,20.81,13.58,36.51,35.05,42.18,61.26,10.81,49.86-18.46,99.06-66.17,114.09-.26.12-.55.22-.91.3-.03.01-.05.01-.08.03-.78.24-1.59.45-2.39.66-5.12,1.66-11.73,5.07-12.65,5.54-5.7,3.26-10,6.84-13.16,10.58,1.91-.85,3.96-1.64,6.18-2.34.99-.27,8.16-2.22,13.53-2.76.82-.05,1.65-.08,2.47-.15h.08c.36-.01.68-.05.96-.11,49.79-4.68,88.75-46.63,88.67-97.64-.05-26.82-10.88-51.09-28.38-68.74Z"/>
      <path class="cls-2" d="M341.1,342.18s4.24-2.99,11.96-4.68c2.62-.58,5.23-1.2,7.76-2.05,8.14-2.76,14.87-6.04,20.42-9.73.23-.16.47-.31.7-.47,2.92-6.5,6.83-12.99,12.07-19.02,2.55-2.73,5.38-5.3,8.49-7.61,3.55-11.18,2.77-22.81.5-32.86-.11-.49-.22-.96-.32-1.43-.74,8.16-2.87,16.67-7.38,24.34-5.14,8.76-13.37,16.46-26.17,21.46-6.2,2.45-13.48,4.24-22,5.23-2.65.3-5.34.35-8.01.38-7.91.03-12.68,2.05-12.68,2.05-13.84,4.88-23.75,18.08-23.72,33.59.03,1.72.14,3.42.38,5.07,1.91,13.22,11.07,24.09,23.32,28.42-.58-1.57-1.05-3.2-1.43-4.88-3.28-15.15,3.62-30.14,16.12-37.82Z"/>
      <path class="cls-2" d="M278.5,215.48h0s18.44,3.18,38.2,4.07c6.91-4.5,15.94-8.57,25.1-11.96,8.85-3.27,18.02-5.69,26.14-6.54,3.87-3.83,6.68-8.12,8.68-12.54-11.38,5.22-27.19,8.03-47.41,4.5-19.48-5.04-37.34-12.25-37.34-12.25h0c-8.89-3.46-18.75-2.58-26.8,1.99-4.33,2.46-8.11,5.97-10.95,10.47-5.96,9.43-6.24,20.81-1.78,30.18.14-.14.26-.24.39-.36,6.92-6.15,16.37-9.08,25.79-7.56Z"/>
      <path class="cls-4" d="M308.45,250.85c5.88-6.72,14.99-13.6,24.48-19.63-.51-.15-1.03-.26-1.54-.38-10.7-2.3-21.87,1.95-28.36,10.83-1.03,1.43-1.95,2.97-2.72,4.62-2.84,6.1-3.3,12.69-1.74,18.73.11-.15.23-.3.34-.46,0,0,5.01-8.54,9.54-13.72Z"/>
      <path class="cls-4" d="M263.82,236.33c12.15,7.66,27.56,5.93,37.67-3.28,0,0,6.69-7.3,12.2-11.41.95-.7,1.95-1.41,3-2.09-19.76-.89-38.2-4.08-38.2-4.08h0c-9.42-1.51-18.87,1.42-25.79,7.57-.14.12-.26.23-.39.36,2.46,5.14,6.34,9.66,11.5,12.93Z"/>
      <path class="cls-4" d="M490.83,289.75c.92-.47,7.53-3.88,12.65-5.54.8-.22,1.61-.42,2.39-.66.03-.01.05-.01.08-.03.35-.08.65-.18.91-.3,47.71-15.03,76.99-64.23,66.17-114.09-5.68-26.21-21.37-47.67-42.18-61.26-.18-.11-.34-.22-.51-.32-11.92-5.15-25.07-7.99-38.89-7.97-41.75.08-77.34,26.29-91.37,63.11,0,0,0,.03-.01.05-3.27,8.76-9.38,18.12-19.92,24-.11.05-.22.12-.31.16-.31.18-.62.32-.93.47-.16.07-.3.15-.42.22-.15.07-.27.14-.38.2-.49.24-.99.47-1.5.7-2,4.42-4.81,8.72-8.68,12.54,15.23-1.62,26.8,2.26,25.8,16.33-.05.53-.04,1.01-.01,1.46-.12.72-.28,1.43-.45,2.15-.81,3.39-2.19,6.7-4.57,9.5-.76.88-1.61,1.69-2.58,2.45-.01.19-.01.36-.01.55-.08,3.49-.73,7.01-2.47,10.25-.11.19-.2.36-.32.55,9.69-4.15,18.1-4.15,19.44,5.76,0,.24.04.47.05.72.05.46.09.99.09,1.49.01.24.03.53.03.77h0c-.01.28,0,.53.04.74-.01.05.01.09,0,.14.03.73.04,1.45.04,2.19.03,2.68-.07,5.45-.32,8.24.11.47.22.95.32,1.43,2.27,10.04,3.05,21.68-.5,32.86,9.8-7.3,22.38-12.06,38.16-11.46.76.03,1.54.07,2.31.12h.03c.5.1,1.89.34,3.65.89.65-.11,1.32-.22,1.99-.31h.03c2.18-.12,21.69-.7,18.27,19.23.34-.3.69-.59,1.04-.89,2.65-2.18,5.85-4.16,9.68-5.85,0,0,0-.01.01-.01,3.16-3.74,7.46-7.33,13.16-10.58ZM566.83,159.16c2.55,0,4.64,7.39,4.64,16.5s-2.08,16.52-4.64,16.52-4.64-7.38-4.64-16.52,2.08-16.5,4.64-16.5ZM547.52,135.53c3.15,0,5.72,9.12,5.72,20.4s-2.57,20.4-5.72,20.4-5.72-9.12-5.72-20.4,2.55-20.4,5.72-20.4Z"/>
      <path class="cls-4" d="M463.27,359.45c-2.96-5.93-7.11-16.76-6.93-27.95-3.81,6.19-8.77,13.3-15.12,21.38v.03c-9.03,9.95-9.76,25.26-1.09,36.1,2.89,3.58,6.46,6.27,10.38,8,.09-.04.2-.08.3-.13,13.75-6.88,19.37-23.63,12.48-37.43Z"/>
      <path class="cls-4" d="M313.8,283.36c12.6,5.87,26.99,1.34,34.78-9.72,0,0,.04-.05.11-.16,1-1.36,8.19-11.2,16.64-18.19-.31.07-.61.14-.92.2-8.03,1.68-18.91,2.14-33.59.81l-.73-.07h-.03l-.55-.05h0c-.61-.03-1.22-.04-1.82-.04-10.95,0-20.98,6.49-25.45,16.53-.05.14-.12.27-.16.42,2.76,4.33,6.73,7.95,11.73,10.27Z"/>
      <path class="cls-4" d="M373.51,356.84v-.03c.03-.15.04-.28.07-.43,1.2-9.04,3.39-20.12,8.37-31.14-.23.16-.47.31-.7.47-5.56,3.69-12.29,6.97-20.42,9.73-2.53.85-5.14,1.47-7.76,2.05-7.72,1.69-11.96,4.68-11.96,4.68-12.5,7.68-19.41,22.67-16.12,37.82.38,1.68.85,3.31,1.43,4.88,3.74,1.35,7.77,2.07,11.98,2.07,17.77-.04,32.48-13.08,35.13-30.1Z"/>
    </g>
  </g>
</svg>